<svg xmlns="http://www.w3.org/2000/svg" width="308.91" height="168" viewBox="0 0 308.91 168"><defs><style>.cls-1{fill:#fff;fill-rule:evenodd}</style></defs><path id="RRB_copy_3" data-name="RRB copy 3" class="cls-1" d="M1435.29 3233.58a3.4 3.4 0 0 1 2.89 0h-2.89zm-6.59.27h3.16a4.032 4.032 0 0 1-3.16 0zm8.96 28.91c.99 1.09-4.25-.3-.53 0h.53zm48.45 2.11c-.78.54.25 2.88-.53 3.42.09-.97-.31-4.93.53-3.42zm-92.17 8.67a5.3 5.3 0 0 1 0 3.68v-3.68zm17.65.53c-1.06-.17-2.8.34-3.43-.26 1.06.17 2.8-.34 3.43.26zm-75.58 3.68a3.329 3.329 0 0 1 0 2.89v-2.89zm-53.19 6.83a4.032 4.032 0 0 1 0 3.16v-3.16zm229.62.53c-.16.89.34 2.44-.26 2.89.17-.88-.34-2.44.26-2.89zm-37.39 4.73c-.17.89.34 2.44-.26 2.89.16-.88-.34-2.44.26-2.89zm36.6 3.42c.17-.8-.33-2.26.27-2.63-.17.8.33 2.27-.27 2.63zm-170.11 38.65a13.155 13.155 0 0 1-5.79 0h5.79zm28.7 4.99a10.645 10.645 0 0 1-5.26 0h5.26zm-98.22 2.89a2.842 2.842 0 0 1 2.63 0h-2.63zm103.75 5.52c.37-.6 1.83-.09 2.64-.26-.37.6-1.84.1-2.64.26zm-123.76 3.95h3.68a5.41 5.41 0 0 1-3.68 0zm101.91 7.36h2.63a2.842 2.842 0 0 1-2.63 0zm13.16 3.42c.45-.61 2.01-.1 2.9-.27-.45.6-2.01.1-2.9.27zm-4.21.52c-1.67-.17-4.03.35-5.27-.26 1.67.17 4.04-.35 5.27.26zm11.06 3.68c1.23-.61 3.6-.09 5.26-.26-1.23.61-3.59.09-5.26.26zm-10.8 11.83h3.43a4.621 4.621 0 0 1-3.43 0zm-6.32 1.84c.8-.6 2.72-.09 3.95-.26-.79.61-2.71.09-3.95.26zm-13.16 1.05h6.05a14.03 14.03 0 0 1-6.05 0zm-8.96 4.47h3.16c-.36.6-1.83.1-2.63.27-.2-.06-.52-.01-.53-.27zm6.59 3.68c-1.06-.16-2.8.35-3.43-.26 1.06.17 2.8-.34 3.43.26zm20.54.27c1.49-.61 4.12-.09 6.05-.27-1.49.61-4.12.1-6.05.27zm-20.02 1.84h4.22a7.064 7.064 0 0 1-4.22 0zm-.52 1.84a4.6 4.6 0 0 1 3.42 0h-3.42zm1.31 3.94v-.26h6.32v.26h-6.32zm128.25-139.86a50.384 50.384 0 0 1 4.74 4.73 47.032 47.032 0 0 1-4.74-4.73zm-130.88 126.19c-.2-.76-2.17.24-2.37-.52.81-.01 3.12-.16 2.37.52zm171.43-116.72c-.55-.33-1.03-.73-1.58-1.06.24-2.51-.8-3.75-1.58-5.25 1.86 1.29 2.78 3.53 3.16 6.31zm1.84 14.98c.46-1.87.13-2.88-1.58-3.15.53-1.36-.34-1.86-.52-3.16 2.61-.46 2.52-4.63 1.05-6.31a5.322 5.322 0 0 1 2.11 1.58c-.46 2.54 2.29 6.22-.79 7.89-.13.82.7.69.79 1.31 0 .88-.86.9-.79 1.84h-.27zm-1.58 13.67c-1.81 2.44-3.96 3.15-3.95 6.05.01 1 1.14 2.02 1.06 3.15-.14 1.76-2.73 2.38-1.85 4.47-2.54 2.23-6.73 5.51-5.53 9.73-.8 2.01-2.79 2.82-2.37 6.05-3.45 5.84-12.51 6.08-14.22 13.67-5.12 3.56-11.15 6.21-14.48 11.56-3.75.56-4.75 3.85-9.22 3.68-3.37 2.69-7.91 4.2-10.53 7.63-5.3.84-7.57 4.71-12.11 6.31-.23-.05-.25.1-.27.26-4.5 1.9-9.39 3.42-13.16 6.05-4.27.5-7.1 1.73-11.85 2.89a18.929 18.929 0 0 0-7.64 3.68c-13.45 1.99-23.24 7.64-37.66 8.67-1.93.18-4.56-.34-6.05.27-5.03 1.28-10.29.88-15.8 1.84h-5.27c-.08-.36-.66-.22-1.05-.27-1.36-.22-2.76-.4-3.16-1.57.34-.27.97-.26 1.31-.53.63.61 2.37.1 3.43.26 1.58.36 1.5-.95 2.63-1.05-.03-.58-1.12-.11-1.58-.26-3.78.21-6.51.38-9.48-1.05.09-.33 1.52.21 2.37 0a3.146 3.146 0 0 0 3.42-1.05c-.04-.31-.48-.22-.79-.27h-3.16c-2.91-.51-4.27-2.57-7.37-2.89 3.1-.85 8.58 1.73 12.64.79.75-.68-1.56-.53-2.37-.52-1.62-.49-4.28.06-4.48-1.85 2.7-2.08 6.78.59 10.54 0a14.03 14.03 0 0 0 6.05 0c3 .28 4.45-.99 7.11-1.05 1.24-.17 3.16.35 3.95-.26.59.59 1.32-.02 1.85-.26-.04-1.55-1.98-.35-2.11-1.32.39-1.4 1.84.12 2.63 0a4.621 4.621 0 0 0 3.43 0c-.63-1.04-3-.34-3.43-1.57.73-2.07 3.93-.86 6.59-1.06 5.39-.39 10.58-2.82 15.01-3.94.7 0 1.55-.15 1.58.53 5.32-2.14 10.78-4.13 16.32-6.05.72-.24-.8-.59 0-1.05 7.57-1.47 14.12-3.96 20.81-6.31-.52-.58-1.75.34-2.9 0 .42-3.85 6.99-4.1 10.53-5.26a74.4 74.4 0 0 0 21.86-11.57c.22-1 .78-1.67 1.05-2.63 5.61-1.94 10.54-4.55 12.12-10.51 1.61-.43 3.89-.02 5-1.05.28-.26.31-1.15.79-1.58.35-.31 1.19-.25 1.58-.53 2.87-2.02 6.07-6.75 5.53-11.56 1.15.6 1.73-.64 3.42-.27 2.01-1.94 4.16-7.02 2.11-10.51 1.87-1.11 4.83-1.14 6.06-2.89-.32-1.79-.72-3.5-2.37-3.95.47-1.08 2.9-1.39 4.21-.79.59-.63.59-1.86 1.58-2.1-.27-1.22-2.17-.81-2.37-2.1-.65-.57 1.25-1.77.26-2.63a.719.719 0 0 0-.52-.79c-.31-1.62-1.53-2.33-3.16-2.63.85-1.25 3.77-1.73 5.26-.79-.77-2.16-.45-2.16 0-4.47-.24-.88-.49-.13-1.31-.26a9.88 9.88 0 0 0-1.58-5.78c.19-.72-.53-.53-.53-1.06a9.9 9.9 0 0 0-2.63-2.36 2.161 2.161 0 0 1-.79-.26c.66-1.52-.44-1.98-.53-3.42-.84-1.51-.44 2.45-.53 3.42a1.691 1.691 0 0 1-.52.26h-.53c-1.95-2.7-2.77-6.53-5-8.94a6.111 6.111 0 0 0-2.37-2.89c-.18 1.15 1.05 2.26.52 2.89-2.33.63-3.27-2.31-4.74-3.42a52.334 52.334 0 0 0-5-4.99c-.61-.18-.71-.88-1.32-1.05a1.266 1.266 0 0 1-.26-.79c0-1.71-3.09-2.5-4.74-3.42-.58.26.65.9.26 1.84a13.257 13.257 0 0 0-6.05-2.89c-1.27-.22-2.63-.36-3.95-.53.55-1.38 2.2-1.66 3.68-2.1.87.01 1.31.44 2.37.26.1-1.06-1.64-.29-2.37-.52-.7-.55-4.54.19-3.16-.79.69.49 1.64-.51 2.9-.26-.32-1.03-1.49-.63-2.37-.53a.735.735 0 0 1 .79-.53c-5.67-1.68-11.15-3.79-18.17-3.41-1.09-.76-3.9.21-5-.53a11.758 11.758 0 0 1 7.9-1.84c.82 0 1.71.62 2.37 0-.08-.61-.71-.6-1.06-.26-.03-.58-1.11-.11-1.58-.27a3.4 3.4 0 0 0-2.89 0c-1.43-.2-2.04.42-3.43.27h-3.95a36.28 36.28 0 0 1 11.85-2.11c1.43.03 2.9 1.1 2.9-.79-.52-.88-2.61-.19-3.42-.78 2.79-1.21 5.75-.33 8.69.26 3.2.31 7.69.67 11.58 1.05-2.03-1.48-5.75-1.26-9.21-1.31-.32-.35-.11-.42 0-.79.25-.01.2-.32.26-.53-1.67-.3-3.51.94-4.48-.26 6.39-4.4 14.38 1.8 20.28 1.58.61-.03 1.49-.55 2.11-.53 3.45.1 7.25 2.2 10.53 3.42 3.6 1.34 6.73 3.25 10.27 3.68a1.672 1.672 0 0 1 .26 1.31c5.6 1.07 7.89 5.45 12.91 7.1.6.27-.13 1.88.52 2.1 1.65.89 2.19 4.19.53 5.53.38.58 1.57.36 2.11.78.02.42-.13 1.01.26 1.06a5.272 5.272 0 0 0 2.37 3.68c.78 1.5 1.82 2.74 1.58 5.25.55.33 1.03.73 1.58 1.06.93.45 1.14 1.23.79 2.36 1.47 1.68 1.56 5.85-1.05 6.31.18 1.3 1.05 1.8.52 3.16 1.71.27 2.04 1.28 1.58 3.15a1.34 1.34 0 0 0 .79.79c.17 1.22-1.16 3.21-1.58 4.73-.6.45-.09 2.01-.26 2.89a9.65 9.65 0 0 1-.26 2.63c-.6.37-.1 1.83-.27 2.63zm-44.24-62.31c.88.62 2.48.52 3.69.79 0-1.56-2.8-1.65-3.69-.79zm32.13 18.41c-.56-2.59-3.02-3.29-4.74-4.73.86 2.29 2.93 3.38 4.74 4.73zm-16.33 12.35c.1 1.22-.32 2.96.79 3.16 1.17-.66.03-2.81-.79-3.16zm-16.06 68.09c2.04-.5 3.3-1.78 4.74-2.89a6.982 6.982 0 0 0-4.74 2.89zm-38.71 24.45c3.79-.24 6.9-1.17 8.69-3.42-2.83 1.21-6.25 1.82-8.69 3.42zm6.32 6.57c2.65.26 5.39-1.61 7.64-2.62.05-.33.41-.54-.27-.53-2.27 1.24-6.06.96-7.37 3.15zm-40.55 7.63c4.27.15 6.4-1.85 8.95-3.42-3.82.31-6.42 1.83-8.95 3.42zm-58.99 15.25c.8-.17 2.27.33 2.63-.27.31.05.75-.04.79.27a3.146 3.146 0 0 1-3.42 1.05v-1.05zm132.72-132.5a52.334 52.334 0 0 1 5 4.99c-1.64-.92-2.83-3.62-4.47-3.68.07-.86-1.03-.56-1.06-1.31.24.16.47.32.53 0zm-.53 0c-.45-.17-1.92-1.7-.79-1.05.61.17.71.87 1.32 1.05-.06.32-.29.16-.53 0zm-46.34 7.62c.8.78 3.41-.25 4.21.53-1.25-.16-4.63.42-4.21-.53zm53.72 33.91c.36 4.18-4.41 4.69-2.37 8.94-.07 1.16-1.25 1.21-1.32 2.37-.38 1.37-1.78 1.73-2.37 2.89-1.44 3.1-1.98 5.68-3.16 9.2-2.92 3.14-8.16 3.95-9.48 8.68-3.48 2.4-7.64 4.11-9.74 7.89-3.93 1.71-7.91 3.15-11.33 5.52a74.382 74.382 0 0 1-11.06 6.83c-2.81 1.28-5.79 2.89-8.16 3.68-4.17 1.39-9.53 1.56-13.17 4.47-10.95 2.12-19.87 6.28-32.65 6.57-.89.17-2.45-.34-2.9.27a15.021 15.021 0 0 0-4.21.52c-1.23-.61-3.6-.09-5.27-.26a2.73 2.73 0 0 1-1.84-.53v-.52c1.04-.72 2.43.09 3.69 0a2.277 2.277 0 0 1 1.05-.79c-1.82-.67-3.77.31-5.79-.26a6.246 6.246 0 0 0-1.58-.53c.87-.63 4.15.67 3.42-1.05h-2.63c-1.59-.52-2.52-1.7-4.48-1.84 1.69-.73 5.39.87 8.43.52-1.46-.73-4.3-.09-4.74-1.84 1.22-.88 2.22-.26 3.68 0 5.58.99 12.09-.68 16.33-.78.39-1.27-1.51-.25-1.32-1.32a19.446 19.446 0 0 0 4.22.26c-.58-.56-1.98-.3-2.37-1.05 1.17-1.57 3.83-.6 5.52-.79 3.34-.37 6.53-1.76 8.96-2.63 4.56.25 7.82-2.81 12.11-3.68.31-.04.22-.48.27-.78 5.22-.84 9.48-2.63 13.95-4.21-.38-.78-1.02.35-1.84 0 .29-2.57 3.28-2.44 5-2.89a50.64 50.64 0 0 0 16.86-8.42c.13-.83.77-1.15.79-2.1 4.2-.97 7.15-3.19 8.42-7.1 4.79-.49 8.38-4.18 8.69-9.99 3.05 1.2 5.3-3.82 3.69-7.09 1.1-1.01 3.36-.86 4.21-2.11.23-1.62-1.74-2.18-1.31-3.15.52-.11 1.95-.65 2.37 0 .48-.48.65-1.28 1.31-1.58a9.768 9.768 0 0 1-1.84-1.32c1.26-1.94-.47-3.61-2.11-4.2a3.491 3.491 0 0 1 3.43-.53 4.437 4.437 0 0 1 0-2.89c-.95-.17-.7-1.56-1.32-2.63-.52-3.38-4-3.18-3.69-6.83-.88.34.51 2.95-.79 2.89-.52.09-.82-.05-.79-.53a23.5 23.5 0 0 0-2.37-4.73 5.076 5.076 0 0 0-2.1-2.63c-.49 1.04 1.05 1.37.26 1.84-.22-.05-.25.1-.26.26a1.33 1.33 0 0 0-.79-.26 1.842 1.842 0 0 1-.53-.79 15.223 15.223 0 0 0-2.63-2.63 21.881 21.881 0 0 0-3.16-3.15c-.01-1.21-1.9-1.91-3.16-2.63-.34.06-.35.79 0 .79-.63.86-.78-.96-1.85-.53-.02-.67-.98-.42-1.31-.79h-.53a6.25 6.25 0 0 0-3.16-.52 2.227 2.227 0 0 1 .26-.79c.84.04.88-.7 1.85-.53h1.84c.21-.99-1.24-.33-1.84-.52h-2.11a5.32 5.32 0 0 1 2.37-.53 28.924 28.924 0 0 0-14.22-3.15h-2.37c.9-1.77 4.32-1.68 6.58-1.32-2.31-1.51-5.38.07-8.69-.26 2.36-1.31 6.58-1.54 10.01-1.58.58-1.72-2.34.06-2.11-1.31 3.04-.62 5.62 1.05 8.43.53a17.871 17.871 0 0 0 5 .52 4.17 4.17 0 0 0-3.16-.52c-.97-.63-3.57.24-2.89-1.32-1.03-.08-2.09.68-2.9 0 4.42-2.87 9.01.89 13.43 1.05.71.03 1.44-.33 2.11-.26 4.95.54 9.19 4.14 13.69 4.73a1.5 1.5 0 0 1 .26 1.05c4.06.51 5.33 3.8 8.96 4.73-.48 2.12 2.09 2.39 1.05 4.21a9.058 9.058 0 0 0-.53.79 1.8 1.8 0 0 1 1.58 1.84c2.08 1.7 2.05 5.49 4.48 6.84-.85 1.45.84 1.72.53 3.41v.79c-.28.6-1.03.73-1.32 1.32a3.2 3.2 0 0 0 1.58 2.89c-.24.66-.5 1.8.53 1.84a1.248 1.248 0 0 0-.27.79c-.44.69-.61 1.67-1.05 2.36-.6.45-.1 2.01-.26 2.89zm-79.79 53.63a9 9 0 0 0 6.05-2.36 13.561 13.561 0 0 0-6.05 2.36zm49.5-93.32c.55.41 1.75.18 2.37.52.16-.95-1.92-1.04-2.37-.52zm18.7 9.46c.11.94 1.99 2.39 3.16 3.16-.48-1.63-1.8-2.41-3.16-3.16zm-8.16 11.31c.22.83-.11 2.21.79 2.36.73-.75-.11-2.16-.79-2.36zm-10.27 46.53c.61-.96 2.14-1.01 2.63-2.1-1.06.35-3.15 1.05-2.63 2.1zm-26.6 16.56c2.13-.1 5.74-1.41 5.27-2.36-1.55 1-3.98 1.11-5.27 2.36zm4.21 4.47c1.75-.14 5.07-1.38 4.48-2.1-1.36.83-4.04.35-4.48 2.1zm48.72-37.33c.33 1.04-1.61 2.07-2.37 2.89.59-1.16 1.99-1.52 2.37-2.89zm-23.96-34.97a15.223 15.223 0 0 1 2.63 2.63 14.551 14.551 0 0 1-2.63-2.63zm-3.16-3.15a21.881 21.881 0 0 1 3.16 3.15 20.915 20.915 0 0 1-3.16-3.15zm-21.86-9.2a28.924 28.924 0 0 1 14.22 3.15 5.32 5.32 0 0 0-2.37.53h2.11v.52c-.97-.17-1.01.57-1.85.53-1.79-1.89-5.57-1.79-8.95-2.1-.8-.78-3.41.25-4.21-.53a11.268 11.268 0 0 1 3.68-1.05 10.065 10.065 0 0 1 2.9.26c.05-1.01-1.65-.28-2.11-.79-1.62.23-3.47.22-5 .53.1-.77 1.24-.51 1.58-1.05zm-99.8 47.85a20.527 20.527 0 0 1 3.16-3.16 22.471 22.471 0 0 1-3.16 3.16zm-32.92-15.78a80.445 80.445 0 0 1 6.06-6.05 76.872 76.872 0 0 1-6.06 6.05zm-21.07 22.61a43.964 43.964 0 0 1 4.48-4.47 42.017 42.017 0 0 1-4.48 4.47zm-36.34-10.25a60.835 60.835 0 0 1 5.27-5.26 60.837 60.837 0 0 1-5.27 5.26zm-3.95 41.8a14.606 14.606 0 0 1 2.64-2.63 15.281 15.281 0 0 1-2.64 2.63zm158.53-26.55a14.879 14.879 0 0 1 2.63-2.63 14.879 14.879 0 0 1-2.63 2.63zm52.4-52.85c1.07-.43 1.22 1.39 1.85.53-.35 0-.34-.73 0-.79 1.26.72 3.15 1.42 3.16 2.63a20.915 20.915 0 0 0 3.16 3.15 14.551 14.551 0 0 0 2.63 2.63 1.842 1.842 0 0 0 .53.79c-.44 1.43 1.63 1.12.79.26.01-.16.04-.31.26-.26.79-.47-.75-.8-.26-1.84a5.076 5.076 0 0 1 2.1 2.63v.26c-1.08.03-.78 1.43-.52 2.11-3.2-1.37-4.28-4.85-7.38-6.31.28-1.49-1.98-2.29-3.16-3.16-.31.05-.22.48-.26.79a10.924 10.924 0 0 0-6.32-2.1c.28-1.3 1.86-1.3 3.42-1.32zm-85.58 14.99a15.223 15.223 0 0 1 2.63-2.63 14.551 14.551 0 0 1-2.63 2.63zm27.39 31.55a14.238 14.238 0 0 1 2.63-2.63 15.223 15.223 0 0 1-2.63 2.63zm-58.46-5.52c-2.92 2.52-6.31 4.57-9.22 7.09 4.65 1.4 9.7 2.42 13.69 4.47 4.77-11.25 6.78-25.61 12.91-36.01a17.77 17.77 0 0 1 3.95-4.74c1.98-1.49 4.77-1.77 7.11-2.89 3.25-1.55 5.95-4.67 9.74-6.57 10.4-5.22 31.5-7.98 33.44 7.62v3.68c-.63 5.5-3.03 9.25-5.53 12.89 7.41 3.94 7.06 18.67.79 23.66a14.879 14.879 0 0 0-2.63 2.63c-11.21 8.96-26.77 13.59-45.03 15.51h-5.79a19.34 19.34 0 0 1-5.53-2.11c-4.22 5.72-11.19 12.96-20.02 9.73-2.32-.85-3.6-3.45-5.79-4.47-2.69-1.26-7.18-1.94-10.8-2.89-1.07-.28-2.81-1.14-3.42-1.05-1.66.23-4.56 4.22-6.06 5.26-2.52 1.73-6.04 2.7-9.48 3.41a2.842 2.842 0 0 0-2.63 0c-2.2-1.27-3.47 2.3-5 3.68a23.56 23.56 0 0 1-11.33 5.79h-3.68c-3.43-.44-5.03-2.7-6.85-4.74-4.91-1.32-9.23-3.22-14.48-4.2a14.606 14.606 0 0 0-2.64 2.63c-3.7 4.48-20.06 10.6-21.85.52-.79-4.43 2.01-9.58 3.95-13.14 5.72-10.56 15.04-21.7 21.85-29.18a60.837 60.837 0 0 0 5.27-5.26c8.09-6.29 20.39-20.1 35.29-19.72 5.39.14 9.32 3.05 10.27 8.41v3.16c-1.46 8.27-5.95 13.52-10.01 19.19a43.964 43.964 0 0 0-4.48 4.47c-4.02 2.9-7.47 6.38-12.11 8.68 2.86 1.61 6.53 2.42 10.01 3.41 6.09-13.19 14.2-24.37 23.17-34.7a76.872 76.872 0 0 0 6.06-6.05c6.81-5.01 17.23-16.05 30.28-14.45 4.97.6 8.77 3.76 10.27 9.46v2.89c-1.32 9.11-5.75 15.11-10.53 20.77a20.527 20.527 0 0 0-3.16 3.16zm61.09 2.89c5.99-6.6.74-15.49-7.64-14.99.56-1.55 2.13-2.08 2.9-3.42 5.8-5.17 12.13-21.92-1.84-22.08-8.37-.09-16.34 4.89-20.81 8.94a15.223 15.223 0 0 0-2.63 2.63c-7.75.02-8.21 6.29-10.27 12.35-3.14 9.25-6.84 21.08-7.9 30.76 2.23 4.51 10.65 1.88 15.8.79 11.25-2.37 23.65-6.65 29.76-12.35a15.223 15.223 0 0 0 2.63-2.63zm-62.15-11.83c2.36-3.59 8.44-10.43 7.11-16.83-1.09-5.27-8.7-4.51-13.16-2.63-10.29 4.34-18.32 13.63-25.55 22.87a139.969 139.969 0 0 0-10 14.2c-3.12 5.22-6.63 11.04-6.32 17.35 7.67 2.56 11.15-5.37 14.48-9.72 5.29 3.76 16.53 3.7 22.38 6.83 1.87 1 2.59 3.33 4.74 3.68 3.19.51 7.9-2.69 7.9-5.52.01-2.85-3.23-3.64-6.05-4.47-8.5-2.5-16.72-5-23.7-8.15a73.477 73.477 0 0 0 23.7-13.14 42.872 42.872 0 0 0 4.47-4.47zm-54.24 7.62c2.3-3.91 9.85-10.01 8.16-17.09-1.94-8.13-15.45-.27-19.49 2.37a73.712 73.712 0 0 0-11.85 9.46 29.75 29.75 0 0 0-3.68 3.68 134.81 134.81 0 0 0-20.81 26.82c-1.92 3.3-4.84 6.68-4.47 11.04 8.02 2.82 11.64-5.91 15.27-9.73 5.07 3.62 15.09 3.8 20.8 6.84 1.84.98 2.53 3.6 4.74 3.94 3.51.54 9.12-3.09 8.17-7.1-.46-1.92-3.64-2.65-6.06-3.41-7.88-2.5-15.02-4.78-21.33-7.89a87.09 87.09 0 0 0 26.33-14.72 39.012 39.012 0 0 0 4.22-4.21zm108.75-10.78c-.16-1.22 1.98-2.41 2.9-3.42-.77 1.34-2.34 1.87-2.9 3.42zm59.25-2.63c.28-2.91-2.42-2.84-2.63-5.26-.63.25.16 1.92-1.05 1.58a11.252 11.252 0 0 0-2.9-5.26c-.39.12.1.34 0 .79-.07.62-1.17.16-1.05-.26a18.017 18.017 0 0 0-2.9-2.89c-1.34-1.05-1.35-2.1-3.16-2.89-.31.04-.22.48-.26.79-.8-.43-1.3-1.16-2.64-1.06-.31-.47-1.37-.2-1.84-.52a2.928 2.928 0 0 1 2.63-.79c-.28-.6-1.65-.1-2.37-.26-.19-.72 1.25.19 1.06-.53a20.147 20.147 0 0 0-4.74-1.58 25.432 25.432 0 0 0-6.32-.52c.44-.7 1.61-.67 2.37-1.05-.6-.5-2.14.3-3.43 0 1.62-.99 4.87-.95 6.59-1.06.25-.95-1.04-.36-1.58-.52 1.84-.91 5.99.45 9.21.52a25.187 25.187 0 0 0-6.05-1.31c3.29-1.37 6.49-.01 10.79.53 3.38.42 6 2.86 8.96 3.15 2.03 1.39 3.83 3.01 6.32 3.94-.27 1.3 1.79 2.24.26 3.16 2.29 2.99 3.87 5.13 4.48 8.94-.08.53-.72.51-.79 1.05-.07 1.32 1.44 1.47.79 2.63.6.58.42.87 0 1.57-.78 1.7.02 2.83-.53 4.47-.51 1.54-2.79 2.24-1.58 4.74a25.078 25.078 0 0 0-4.74 9.99c-2.16 1.78-5.47 2.42-6.32 5.52-16.64 12.39-35.87 22.19-62.94 24.18-.89.08-2.13-.2-2.63.27-.87-.27-2.01-.27-2.63-.79.56-.75 2.94.31 3.16-.79-1.12-.47-2.46.19-3.95-.26-.82-.58 1.89.15 1.58-.79a5.869 5.869 0 0 1-3.69-1.05c1.24-.79 2.8.35 4.48 0-.8-.7-3.14.14-3.16-1.32.91-.72 1.97.17 3.16 0a10.645 10.645 0 0 0 5.26 0c3-.24 4.74-.9 6.85-1.05.2-1.07-1.71-.05-1.32-1.31 10.55-.3 17.91-5.04 27.39-7.63-.08-.36-.66-.22-1.05-.26 1.9-2.04 5.01-2.27 7.63-3.42a42.014 42.014 0 0 0 7.11-3.94c.26-.54.54-1.04.79-1.58a8.214 8.214 0 0 0 5.8-5c3.57-.55 5.36-2.87 5.79-6.57 2.79.24 2.67-2.42 2.63-4.99.66-.66 2.15-.49 2.64-1.32.04-1.09-.79-1.32-1.06-2.1 1.38-.34 1.98.09 2.64-1.05-2.19-.26-.04-3.59-2.64-3.68.1-.87 1.52-.41 2.37-.53-.44-1.11.35-2.04-.79-2.63zm-4.21-6.57c.7-.08-.25 1.47.79 1.05.27-.74-.41-1.83-.79-1.05zm-40.55 48.9a7.271 7.271 0 0 0 3.95-1.58c-1.88-.03-2.78.91-3.95 1.58zm46.34-56.79c.19.88 1.55 1.95 2.11 1.58-.8-.42-1.14-1.32-2.11-1.58zm-30.81 50.22a4.912 4.912 0 0 0 3.69-1.32 18.244 18.244 0 0 0-3.69 1.32zm2.9 3.15a7.03 7.03 0 0 0 3.16-1.31c-1.17.32-2.68.3-3.16 1.31zm19.75-47.06c.1-.45-.39-.67 0-.79a11.252 11.252 0 0 1 2.9 5.26c1.21.34.42-1.33 1.05-1.58.21 2.42 2.91 2.35 2.63 5.26a2.834 2.834 0 0 1-1.58-2.1c-.73-.12.21 1.43-.52 1.31-1.58-1.31-2.02-3.76-3.17-5.52-.67.03-.52.88-.52 1.58-2.58-1.9-4.3-4.65-6.85-6.57-1.07 1.1-2.48-1.39-4.74-.79.08-.71 1.11-.47 1.32-1.05-.64-.41-1.13-.55.26-.53-.08-.35-.66-.22-1.05-.26a1.64 1.64 0 0 0 .26-.53c1.34-.1 1.84.63 2.64 1.06.04-.31-.05-.75.26-.79 1.81.79 1.82 1.84 3.16 2.89.72 1.12 1.91 1.77 2.63 2.89a2.5 2.5 0 0 0 1.06 2.1 4.373 4.373 0 0 1 .26-1.84zm-3.95-3.15a18.017 18.017 0 0 1 2.9 2.89h-.27c-.72-1.12-1.91-1.77-2.63-2.89zm25.81-6.05a1.33 1.33 0 0 1 .79.26c.84.86-1.23 1.17-.79-.26zm2.89 1.05v-.26a23.5 23.5 0 0 1 2.37 4.73 42.111 42.111 0 0 1-2.37-4.47zm-85.58 17.09c-4.63 3.52-10.2 6.12-15.8 8.68a29.942 29.942 0 0 1 6.58-15.51c3.61-4.31 9.05-9.31 16.07-9.2 2.99 5.06-1.92 10.23-4.22 13.4a15.583 15.583 0 0 0-2.63 2.63zm0 0a15.583 15.583 0 0 1 2.63-2.63 14.238 14.238 0 0 1-2.63 2.63zm-50.82 9.47a42.872 42.872 0 0 1 4.47-4.47 42.872 42.872 0 0 1-4.47 4.47zm139.56-21.56c1.3.06-.09-2.55.79-2.89-.31 3.65 3.17 3.45 3.69 6.83-.34.49-.78-1.13-1.84-.79.36-1.15.03-1.35-.27-2.36-1.08-.03-.04 2.05-.79 2.36-1.18-.29-1.85-2.25-1.58-3.15zm-153.78 14.98a20.915 20.915 0 0 1 3.16-3.15 21.881 21.881 0 0 1-3.16 3.15zm-6.85 9.99c.14-.91-.39-2.49.53-2.62-.47.49-.2 1.73-.27 2.62h-.26zm10.01-13.14c3.82-2.94 6.4-7.11 12.11-8.15 1 6.88-3.79 12.05-7.9 15.51-4.46 3.75-10.57 6.02-15.8 8.41.48-.92 1.28-1.52 1.58-2.63h.26c.07-.89-.2-2.13.27-2.62 1.95-2.61 4.34-4.78 6.32-7.37a21.881 21.881 0 0 0 3.16-3.15zm122.71-8.68a4.373 4.373 0 0 0-.26 1.84 2.5 2.5 0 0 1-1.06-2.1h.27c-.12.42.98.88 1.05.26zm-188.28 19.98a29.75 29.75 0 0 1 3.68-3.68 28.433 28.433 0 0 1-3.68 3.68zm22.64 5.79a38.127 38.127 0 0 1 4.22-4.21 39.012 39.012 0 0 1-4.22 4.21zm-17.38-2.63a22.471 22.471 0 0 1 3.16-3.16 20.981 20.981 0 0 1-3.16 3.16zm-2.89 2.89a14.551 14.551 0 0 1 2.63-2.63 15.223 15.223 0 0 1-2.63 2.63zm-2.11 3.68a2.273 2.273 0 0 1 1.32-2.63c-.48.75-1.38 1.08-1.06 2.63h-.26zm16.33-6.83c-5.1 4.46-11.64 7.48-18.44 10.25.65-1.19 1.91-1.78 2.11-3.42h.26c-.32-1.55.58-1.88 1.06-2.63.07-.53.71-.51.79-1.05a15.223 15.223 0 0 0 2.63-2.63c-.05-.22.1-.25.26-.26a20.981 20.981 0 0 0 3.16-3.16c2.34-2.11 4.78-4.48 7.38-6.57 2.42-1.95 5.33-4.59 8.95-4.47.46 4.55-2.87 7.43-4.74 10.52a25.121 25.121 0 0 0-3.42 3.42zm0 0a25.121 25.121 0 0 1 3.42-3.42 25.121 25.121 0 0 1-3.42 3.42zm109.28 37.33c.5-.47 1.74-.19 2.63-.27-.36.69-2.23-.12-2.63.53v-.26zm-17.64-26.03a28.423 28.423 0 0 1 1.84-9.73 57.159 57.159 0 0 0 8.43-2.89c2.54-1.06 5.08-3.05 7.37-3.68 3.34-.92 10.34-.01 10.8 2.89.23 1.5-1.63 3.17-2.64 3.95-5.83 4.5-16.76 7.35-25.8 9.46zm99.01 2.37c-.49 1.09-2.02 1.14-2.63 2.1-.52-1.05 1.57-1.75 2.63-2.1zm-37.92 6.04a4.912 4.912 0 0 1-3.69 1.32 18.244 18.244 0 0 1 3.69-1.32zm62.41 2.63c-1.44 1.11-2.7 2.39-4.74 2.89a6.982 6.982 0 0 1 4.74-2.89zm-60.04.53a7.03 7.03 0 0 1-3.16 1.31c.48-1.01 1.99-.99 3.16-1.31zm1.58 4.47a8.986 8.986 0 0 1-3.42 1.57c.39-1.27 2.17-1.16 3.42-1.57zm10.01 2.63c.47.95-3.14 2.26-5.27 2.36 1.29-1.25 3.72-1.36 5.27-2.36zm3.42 4.73c.59.72-2.73 1.96-4.48 2.1.44-1.75 3.12-1.27 4.48-2.1zm2.37 5.25c-1.15 1.23-3.09 1.66-4.74 2.37-.28-1.6 3.45-1.46 4.74-2.37zm7.9 6.31c-1.79 2.25-4.9 3.18-8.69 3.42 2.44-1.6 5.86-2.21 8.69-3.42zm5 6.84c.68-.01.32.2.27.53-2.25 1.01-4.99 2.88-7.64 2.62 1.31-2.19 5.1-1.91 7.37-3.15zm-99.8 28.13c.46.15 1.55-.32 1.58.26-1.13.1-1.05 1.41-2.63 1.05-.63-.6-2.37-.09-3.43-.26-.34.27-.97.26-1.31.53.4 1.17 1.8 1.35 3.16 1.57-4.14.63-6.78-2.51-10.27-3.41 2.02-.5 3.92 1.07 6.58.79a7.94 7.94 0 0 0 4.48 0c.74-.05 1.8.22 1.84-.53zm93.22-149.32c7.02-.38 12.5 1.73 18.17 3.41a.735.735 0 0 0-.79.53c.88-.1 2.05-.5 2.37.53-1.26-.25-2.21.75-2.9.26-3.85-2.04-8.09-2.44-13.43-2.63-1.49-.61-4.12-.09-6.05-.26-.69-1.13 2.05-1.1 2.63-1.84zm-2.63 1.84c1.93.17 4.56-.35 6.05.26-1.93-.17-4.56.35-6.05-.26zm22.64 3.68c.73.23 2.47-.54 2.37.52-1.06.18-1.5-.25-2.37-.26v-.26zm.27 2.89a13.257 13.257 0 0 1 6.05 2.89c.39-.94-.84-1.58-.26-1.84 1.65.92 4.74 1.71 4.74 3.42-.82 1.21-1.66-1.05-2.9-1.05v1.57c-2.34-2.12-6.06-3.08-9.74-3.15.41-.91 1.39-1.24 2.11-1.84zm-20.02 7.89a4.17 4.17 0 0 1 3.16.52 17.871 17.871 0 0 1-5-.52h1.84zm70.05 1.84c-.39-.05-.24-.64-.26-1.06-.54-.42-1.73-.2-2.11-.78 1.66-1.34 1.12-4.64-.53-5.53 1.86-.44 1.38 1.36 1.85 2.63.73 1.99 2.78 2.64 1.05 4.74zm-80.32 2.62c.46.51 2.16-.22 2.11.79a10.065 10.065 0 0 0-2.9-.26c.06-.38.79-.09.79-.53zm47.4-1.05c1.47 1.11 2.41 4.05 4.74 3.42.53-.63-.7-1.74-.52-2.89a6.111 6.111 0 0 1 2.37 2.89c-1.33.95.53 2.65-.53 3.15-2-.1-2.13-2.08-3.42-2.89a50.384 50.384 0 0 0-4.74-4.73c-.49-1.07-2.82-1.47-2.37-2.63 1.64.06 2.83 2.76 4.47 3.68zm-36.86 4.21c.6.19 2.05-.47 1.84.52h-1.84v-.52zm47.92 4.47c-1.11-.2-.69-1.94-.79-3.16.82.35 1.96 2.5.79 3.16zm-17.64.79c-1.17-.77-3.05-2.22-3.16-3.16 1.36.75 2.68 1.53 3.16 3.16zm19.75-.79c.09 1.44 1.19 1.9.53 3.42a2.161 2.161 0 0 0 .79.26c.32.64.81 3.33-.79 2.89-1.26-.24-1.16-1.83-1.58-2.89a1.691 1.691 0 0 0 .52-.26c.78-.54-.25-2.88.53-3.42zm-15.54 4.73a1.8 1.8 0 0 0-1.58-1.84 9.058 9.058 0 0 1 .53-.79c.54-.53 2.28 2.27 1.05 2.63zm19.49 1.31c0 .53.72.34.53 1.06-1.45.59-2.95-3.05-.53-1.06zm-76.89.79a20.147 20.147 0 0 1 4.74 1.58c.19.72-1.25-.19-1.06.53.72.16 2.09-.34 2.37.26a2.928 2.928 0 0 0-2.63.79 22.662 22.662 0 0 0-5-.79c-.63-.6-2.37-.09-3.43-.26-.36-.21 1.14-.78 1.85-.79.87-.46 1.16.13 2.37 0-.24-.66-2.37-.78-2.9-.27h-1.58c1.11-1.13 4.24-.57 5.27-1.05zm-3.69 1.05c.53-.51 2.66-.39 2.9.27-1.21.13-1.5-.46-2.37 0-.01-.26-.33-.21-.53-.27zm46.35 3.42c-.9-.15-.57-1.53-.79-2.36.68.2 1.52 1.61.79 2.36zm-24.23 8.15c-1.04.42-.09-1.13-.79-1.05.38-.78 1.06.31.79 1.05zm44.24.53a3.2 3.2 0 0 1-1.58-2.89c.29-.59 1.04-.72 1.32-1.32v-.79c.25 0 .2-.32.26-.52.4 1.2 1.88 3.97.26 5.52h-.26zm15.54 1.05a.719.719 0 0 1 .52.79c.07 1.26-2.95-1.05-.52-.79zm-46.61 5.26c.65-1.16-.86-1.31-.79-2.63.07-.54.71-.52.79-1.05a4.522 4.522 0 0 1 1.05 3.15c-.41.12-.23.83-1.05.53zm-90.06 67.04c2.02.57 3.97-.41 5.79.26a2.277 2.277 0 0 0-1.05.79c-1.26.09-2.65-.72-3.69 0-.39-.31-1.18-.23-1.05-1.05zm83.74 7.36c2.03.44 4.17-1.27 6.32-1.58-1.86 1.83-4.53 2.84-7.64 3.42.08-.64 1.62-1.17 1.05-1.58.02-.16.04-.31.27-.26zm8.42-112c-.62-.34-1.82-.11-2.37-.52.45-.52 2.53-.43 2.37.52zm-52.66 77.03a7.271 7.271 0 0 1-3.95 1.58c1.17-.67 2.07-1.61 3.95-1.58zm6.84 13.41a9 9 0 0 1-6.05 2.36 13.561 13.561 0 0 1 6.05-2.36zm2.11 21.03c-2.55 1.57-4.68 3.57-8.95 3.42 2.53-1.59 5.13-3.11 8.95-3.42zm-36.6 0c1.05-.61 3.24-.09 4.74-.26-1.06.61-3.25.09-4.74.26zm-30.55 21.3h4.48a7.94 7.94 0 0 1-4.48 0zm102.44-152.22c-.05-.57.93-.12 1.31-.26.35-.34.98-.35 1.06.26-.66.62-1.55 0-2.37 0zm56.35 10.52c1.72 1.44 4.18 2.14 4.74 4.73-1.81-1.35-3.88-2.44-4.74-4.73zm-56.09 32.33c-.56.37-1.92-.7-2.11-1.58.97.26 1.31 1.16 2.11 1.58z" transform="translate(-1206.06 -3227)"/></svg>