<svg version="1" xmlns="http://www.w3.org/2000/svg" width="200" height="200" viewBox="0 0 150.000000 150.000000"><path d="M95.2 9.7c-.6.2-1 .8-.7 1.2.2.5-.7.6-2.2.3-1.4-.3-2.3-.1-2 .4.3.5-1.4 1-3.6 1.2-4.1.3-7.9 2.2-4.3 2.2.9 0 1.5.4 1.1.9-.7 1.2 7.1 3.2 13.4 3.4.8 0 2.1 1.2 2.9 2.7 1 1.8 3.1 3.1 6.1 4 3.4 1 5.9 2.8 9.5 6.8 4.2 4.6 5.1 5.1 5.6 3.6.6-1.5.9-1.1 1.9 1.9.7 2.1 2.5 4.5 3.9 5.5 3.2 2 4.3 3.3 3.6 4.4-.3.4 0 .8.5.8 1.9 0 1.2 2.8-.8 3.5-1.8.6-1.8.7-.1 4.3 1.8 3.6 1.8 3.7-.1 4.4-1.2.5-1.6 1.3-1.3 2.3.4 1-.1 2.2-1.3 3-1.2.9-2 2.6-2 4.2s-1 3.4-2.4 4.6c-1.3 1.1-2.5 2.3-2.5 2.8-.1.5-.2 1.4-.3 2-.2 1.7-7 7.9-8.6 7.9-.8 0-1.5.6-1.5 1.2 0 .7-1.7 2.4-3.6 3.8-2 1.4-4.5 3.4-5.7 4.4-4 3.7-12.7 8.3-19.2 10.2-3.8 1.1-6.7 2.5-7 3.5-.3.9-3.2 2.3-6.8 3.4-3.4 1-6.9 2.2-7.7 2.7-3.2 1.7-12.3 4.9-12.8 4.4-.2-.3-1.2-.1-2.2.4-2.4 1.3-6.9 2.2-11.3 2.4-2.2.1-3.7.6-3.7 1.3 0 2.2-3.4 3-13.5 3.1-6.1.1-9.9.5-9.8 1.2.2.5-1 .7-3 .4l-3.2-.5 3.3 1.7c3.7 1.9 4.2 3.4 1 2.7-2.1-.4-2-.2.4 1.4 1.6 1 2.8 2.1 2.8 2.5 0 .5.7.8 1.6.8.8 0 1.2.4.9 1-1 1.5 3.7 2.2 11.1 1.5 3.8-.3 8.9-.8 11.4-1 7.7-.7 30.9-6.5 33.5-8.5.6-.4 3.9-1.6 7.5-2.6 7.7-2.1 17.7-6.9 28.1-13.5 4.2-2.7 8.1-4.9 8.8-4.9.7 0 2.6-1.4 4.4-3 1.8-1.7 5.1-4.3 7.4-5.7 2.3-1.5 4.4-3.5 4.6-4.4.3-1 2.2-2.8 4.3-4.2 4.4-2.7 6.7-5.2 7-7.4.1-.8.6-2.2 1-3.1.4-.9.8-2.2.9-2.7.2-.6 1.4-2.7 2.8-4.8 1.5-2.2 2.3-4.5 2-5.7-.3-1.2.2-2.9 1.1-3.9 1.5-1.6 2.9-8.1 2.7-12.1-.6-11.2-2.5-18.4-5.4-20.2-.5-.3-1.1-1.7-1.3-3-.1-1.2-.3-2.6-.3-3.1-.2-2.1-8.2-8.2-14.5-11.1-12-5.4-27.7-8.8-32.4-6.9zM15 139.4c0 1.1-1.9 1.5-2.5.6-.3-.5.1-1 .9-1 .9 0 1.6.2 1.6.4z"/><path d="M83 28.3c0 .5-.3.7-.6.4-.4-.3-1.5-.2-2.5.3-1 .6-2.9 1.1-4.3 1.2-1.5.1-2.6.5-2.6.9 0 1.5 3.8 3.5 7 3.8 2.2.1 4.3 1.1 5.7 2.7 1.2 1.3 2.4 2.4 2.5 2.3 1.1-.7 5.6 1.9 8 4.7 1.7 1.9 3.4 3.1 3.9 2.8.5-.3 1.2.3 1.6 1.3.3 1 1.8 2.8 3.2 4 2 1.6 2.3 2.4 1.4 3.3-.7.8-.8 2.2-.3 4.1.5 1.7.5 2.9-.1 2.9-.5 0-.9.9-.9 2s-.4 2-.9 2-1.2 1.3-1.6 2.9c-.3 1.6-1.3 3.2-2.1 3.5-.8.3-1.4 1.2-1.4 2C99 79.1 76.2 95 70.9 95c-.9 0-1.9.6-2.2 1.4-.5 1.2-2.4 2-9.2 4-.5.2-1.3.4-1.8.5-.4 0-2 .7-3.5 1.5-1.5.7-5.4 1.9-8.7 2.6-3.3.6-7.1 1.7-8.5 2.4-1.4.7-4.7 1.4-7.5 1.5-2.7.1-6.2.4-7.8.7l-2.7.6 2.2 2c2.1 1.8 2.1 1.9.3 1.4l-2-.6 2 1.5c1.1.9 2.8 2.2 3.8 3 1.2 1.1 3.2 1.3 7 1 2.8-.3 7-.7 9.2-.9 4.6-.5 7.5-1.1 12-2.6 1.8-.6 4.1-1.3 5.1-1.5 7.7-1.8 20.7-7.4 27.9-12 3-1.9 5.9-3.5 6.4-3.5 1.1 0 6.3-4.3 10.7-8.8 1.8-1.7 3.6-3.2 3.9-3.2 1.3 0 3.6-3.1 4.7-6.2.6-1.8 1.7-4 2.5-4.9.8-.9 1.5-2.7 1.7-4 .1-1.3.8-3.4 1.4-4.6.7-1.3 1.2-4 1.2-6v-6.2c0-5.8-9.6-21.1-13.3-21.1-.2 0-2.2-.8-4.3-1.7-2.2-.9-4.6-1.8-5.4-1.9-.8-.2-3.1-.6-5-1-6.3-1.2-8-1.2-8-.1z"/><path d="M70 41c0 .5-1.7.9-5.7 1.2-2.3.2 1.5 4.1 4.3 4.4 1.5.2 3 .7 3.3 1.2.3.5 2.1 1.7 3.9 2.6 1.7.9 3.2 2.1 3.2 2.7 0 .5.8 1.3 1.8 1.6.9.4 2.5 1.6 3.4 2.8 3.4 4.1-.6 14.2-8.2 20.5-2.3 1.9-4.7 3.9-5.3 4.5-.7.5-2.5 1.6-4.2 2.4-1.6.7-4.3 1.9-6 2.7-3.2 1.4-8.7 3.7-9.5 3.8-4 .9-10.9 3-12.3 3.7-1 .5-3.6.9-5.7.7-4.6-.2-5.8.6-4 2.7 1 1.2 1 1.5-.1 1.5-.8 0-.2.8 1.4 1.8 2.3 1.6 3.7 1.7 9.5 1 12.7-1.6 32-9.3 41-16.3 2.4-1.9 9.2-8.7 9.2-9.2 0-.3.6-1.9 1.4-3.6 4.2-9.3 4.3-14.3.5-22.1-1.9-4-3.4-5.5-7.2-7.3-2.6-1.4-6-2.6-7.5-2.7-1.5-.2-2.7-.5-2.7-.6 0-.1-1-.3-2.2-.4-1.3-.2-2.3 0-2.3.4z"/></svg>