<svg xmlns="http://www.w3.org/2000/svg" width="308.91" height="168" viewBox="0 0 308.91 168">
  <metadata><?xpacket begin="﻿" id="W5M0MpCehiHzreSzNTczkc9d"?>
<x:xmpmeta xmlns:x="adobe:ns:meta/" x:xmptk="Adobe XMP Core 5.6-c138 79.159824, 2016/09/14-01:09:01        ">
   <rdf:RDF xmlns:rdf="http://www.w3.org/1999/02/22-rdf-syntax-ns#">
      <rdf:Description rdf:about=""/>
   </rdf:RDF>
</x:xmpmeta>
                                                                                                    
                                                                                                    
                                                                                                    
                                                                                                    
                                                                                                    
                                                                                                    
                                                                                                    
                                                                                                    
                                                                                                    
                                                                                                    
                                                                                                    
                                                                                                    
                                                                                                    
                                                                                                    
                                                                                                    
                                                                                                    
                                                                                                    
                                                                                                    
                                                                                                    
                                                                                                    
                           
<?xpacket end="w"?></metadata>
<defs>
    <style>
      .cls-1 {
        fill: #fff;
        fill-rule: evenodd;
      }
    </style>
  </defs>
  <path id="RRB_copy_3" data-name="RRB copy 3" class="cls-1" d="M1435.29,3233.58a3.4,3.4,0,0,1,2.89,0h-2.89Zm-6.59.27h3.16A4.032,4.032,0,0,1,1428.7,3233.85Zm8.96,28.91c0.99,1.09-4.25-.3-0.53,0h0.53Zm48.45,2.11c-0.78.54,0.25,2.88-.53,3.42C1485.67,3267.32,1485.27,3263.36,1486.11,3264.87Zm-92.17,8.67a5.3,5.3,0,0,1,0,3.68v-3.68Zm17.65,0.53c-1.06-.17-2.8.34-3.43-0.26C1409.22,3273.98,1410.96,3273.47,1411.59,3274.07Zm-75.58,3.68a3.329,3.329,0,0,1,0,2.89v-2.89Zm-53.19,6.83a4.032,4.032,0,0,1,0,3.16v-3.16Zm229.62,0.53c-0.16.89,0.34,2.44-.26,2.89C1512.35,3287.12,1511.84,3285.56,1512.44,3285.11Zm-37.39,4.73c-0.17.89,0.34,2.44-.26,2.89C1474.95,3291.85,1474.45,3290.29,1475.05,3289.84Zm36.6,3.42c0.17-.8-0.33-2.26.27-2.63C1511.75,3291.43,1512.25,3292.9,1511.65,3293.26Zm-170.11,38.65a13.155,13.155,0,0,1-5.79,0h5.79Zm28.7,4.99a10.645,10.645,0,0,1-5.26,0h5.26Zm-98.22,2.89a2.842,2.842,0,0,1,2.63,0h-2.63Zm103.75,5.52c0.37-.6,1.83-0.09,2.64-0.26C1378.04,3345.65,1376.57,3345.15,1375.77,3345.31Zm-123.76,3.95h3.68A5.41,5.41,0,0,1,1252.01,3349.26Zm101.91,7.36h2.63A2.842,2.842,0,0,1,1353.92,3356.62Zm13.16,3.42c0.45-.61,2.01-0.1,2.9-0.27C1369.53,3360.37,1367.97,3359.87,1367.08,3360.04Zm-4.21.52c-1.67-.17-4.03.35-5.27-0.26C1359.27,3360.47,1361.64,3359.95,1362.87,3360.56Zm11.06,3.68c1.23-.61,3.6-0.09,5.26-0.26C1377.96,3364.59,1375.6,3364.07,1373.93,3364.24Zm-10.8,11.83h3.43A4.621,4.621,0,0,1,1363.13,3376.07Zm-6.32,1.84c0.8-.6,2.72-0.09,3.95-0.26C1359.97,3378.26,1358.05,3377.74,1356.81,3377.91Zm-13.16,1.05h6.05A14.03,14.03,0,0,1,1343.65,3378.96Zm-8.96,4.47h3.16c-0.36.6-1.83,0.1-2.63,0.27C1335.02,3383.64,1334.7,3383.69,1334.69,3383.43Zm6.59,3.68c-1.06-.16-2.8.35-3.43-0.26C1338.91,3387.02,1340.65,3386.51,1341.28,3387.11Zm20.54,0.27c1.49-.61,4.12-0.09,6.05-0.27C1366.38,3387.72,1363.75,3387.21,1361.82,3387.38Zm-20.02,1.84h4.22A7.064,7.064,0,0,1,1341.8,3389.22Zm-0.52,1.84a4.6,4.6,0,0,1,3.42,0h-3.42Zm1.31,3.94v-0.26h6.32V3395h-6.32Zm128.25-139.86a50.384,50.384,0,0,1,4.74,4.73A47.032,47.032,0,0,1,1470.84,3255.14Zm-130.88,126.19c-0.2-.76-2.17.24-2.37-0.52C1338.4,3380.8,1340.71,3380.65,1339.96,3381.33Zm171.43-116.72c-0.55-.33-1.03-0.73-1.58-1.06,0.24-2.51-.8-3.75-1.58-5.25C1510.09,3259.59,1511.01,3261.83,1511.39,3264.61Zm1.84,14.98c0.46-1.87.13-2.88-1.58-3.15,0.53-1.36-.34-1.86-0.52-3.16,2.61-.46,2.52-4.63,1.05-6.31a5.322,5.322,0,0,1,2.11,1.58c-0.46,2.54,2.29,6.22-.79,7.89-0.13.82,0.7,0.69,0.79,1.31,0,0.88-.86.9-0.79,1.84h-0.27Zm-1.58,13.67c-1.81,2.44-3.96,3.15-3.95,6.05,0.01,1,1.14,2.02,1.06,3.15-0.14,1.76-2.73,2.38-1.85,4.47-2.54,2.23-6.73,5.51-5.53,9.73-0.8,2.01-2.79,2.82-2.37,6.05-3.45,5.84-12.51,6.08-14.22,13.67-5.12,3.56-11.15,6.21-14.48,11.56-3.75.56-4.75,3.85-9.22,3.68-3.37,2.69-7.91,4.2-10.53,7.63-5.3.84-7.57,4.71-12.11,6.31-0.23-.05-0.25.1-0.27,0.26-4.5,1.9-9.39,3.42-13.16,6.05-4.27.5-7.1,1.73-11.85,2.89a18.929,18.929,0,0,0-7.64,3.68c-13.45,1.99-23.24,7.64-37.66,8.67-1.93.18-4.56-.34-6.05,0.27-5.03,1.28-10.29.88-15.8,1.84h-5.27c-0.08-.36-0.66-0.22-1.05-0.27-1.36-.22-2.76-0.4-3.16-1.57,0.34-.27.97-0.26,1.31-0.53,0.63,0.61,2.37.1,3.43,0.26,1.58,0.36,1.5-.95,2.63-1.05-0.03-.58-1.12-0.11-1.58-0.26-3.78.21-6.51,0.38-9.48-1.05,0.09-.33,1.52.21,2.37,0a3.146,3.146,0,0,0,3.42-1.05c-0.04-.31-0.48-0.22-0.79-0.27h-3.16c-2.91-.51-4.27-2.57-7.37-2.89,3.1-.85,8.58,1.73,12.64.79,0.75-.68-1.56-0.53-2.37-0.52-1.62-.49-4.28.06-4.48-1.85,2.7-2.08,6.78.59,10.54,0a14.03,14.03,0,0,0,6.05,0c3,0.28,4.45-.99,7.11-1.05,1.24-.17,3.16.35,3.95-0.26,0.59,0.59,1.32-.02,1.85-0.26-0.04-1.55-1.98-.35-2.11-1.32,0.39-1.4,1.84.12,2.63,0a4.621,4.621,0,0,0,3.43,0c-0.63-1.04-3-.34-3.43-1.57,0.73-2.07,3.93-.86,6.59-1.06,5.39-.39,10.58-2.82,15.01-3.94,0.7,0,1.55-.15,1.58.53,5.32-2.14,10.78-4.13,16.32-6.05,0.72-.24-0.8-0.59,0-1.05,7.57-1.47,14.12-3.96,20.81-6.31-0.52-.58-1.75.34-2.9,0,0.42-3.85,6.99-4.1,10.53-5.26a74.4,74.4,0,0,0,21.86-11.57c0.22-1,.78-1.67,1.05-2.63,5.61-1.94,10.54-4.55,12.12-10.51,1.61-.43,3.89-0.02,5-1.05,0.28-.26.31-1.15,0.79-1.58,0.35-.31,1.19-0.25,1.58-0.53,2.87-2.02,6.07-6.75,5.53-11.56,1.15,0.6,1.73-.64,3.42-0.27,2.01-1.94,4.16-7.02,2.11-10.51,1.87-1.11,4.83-1.14,6.06-2.89-0.32-1.79-.72-3.5-2.37-3.95,0.47-1.08,2.9-1.39,4.21-.79,0.59-.63.59-1.86,1.58-2.1-0.27-1.22-2.17-.81-2.37-2.1-0.65-.57,1.25-1.77.26-2.63a0.719,0.719,0,0,0-.52-0.79c-0.31-1.62-1.53-2.33-3.16-2.63,0.85-1.25,3.77-1.73,5.26-.79-0.77-2.16-.45-2.16,0-4.47-0.24-.88-0.49-0.13-1.31-0.26a9.88,9.88,0,0,0-1.58-5.78c0.19-.72-0.53-0.53-0.53-1.06a9.9,9.9,0,0,0-2.63-2.36,2.161,2.161,0,0,1-.79-0.26c0.66-1.52-.44-1.98-0.53-3.42-0.84-1.51-.44,2.45-0.53,3.42a1.691,1.691,0,0,1-.52.26h-0.53c-1.95-2.7-2.77-6.53-5-8.94a6.111,6.111,0,0,0-2.37-2.89c-0.18,1.15,1.05,2.26.52,2.89-2.33.63-3.27-2.31-4.74-3.42a52.334,52.334,0,0,0-5-4.99c-0.61-.18-0.71-0.88-1.32-1.05a1.266,1.266,0,0,1-.26-0.79c0-1.71-3.09-2.5-4.74-3.42-0.58.26,0.65,0.9,0.26,1.84a13.257,13.257,0,0,0-6.05-2.89c-1.27-.22-2.63-0.36-3.95-0.53,0.55-1.38,2.2-1.66,3.68-2.1,0.87,0.01,1.31.44,2.37,0.26,0.1-1.06-1.64-.29-2.37-0.52-0.7-.55-4.54.19-3.16-0.79,0.69,0.49,1.64-.51,2.9-0.26-0.32-1.03-1.49-.63-2.37-0.53a0.735,0.735,0,0,1,.79-0.53c-5.67-1.68-11.15-3.79-18.17-3.41-1.09-.76-3.9.21-5-0.53a11.758,11.758,0,0,1,7.9-1.84c0.82,0,1.71.62,2.37,0-0.08-.61-0.71-0.6-1.06-0.26-0.03-.58-1.11-0.11-1.58-0.27a3.4,3.4,0,0,0-2.89,0c-1.43-.2-2.04.42-3.43,0.27h-3.95a36.28,36.28,0,0,1,11.85-2.11c1.43,0.03,2.9,1.1,2.9-.79-0.52-.88-2.61-0.19-3.42-0.78,2.79-1.21,5.75-.33,8.69.26,3.2,0.31,7.69.67,11.58,1.05-2.03-1.48-5.75-1.26-9.21-1.31-0.32-.35-0.11-0.42,0-0.79,0.25-.01.2-0.32,0.26-0.53-1.67-.3-3.51.94-4.48-0.26,6.39-4.4,14.38,1.8,20.28,1.58,0.61-.03,1.49-0.55,2.11-0.53,3.45,0.1,7.25,2.2,10.53,3.42,3.6,1.34,6.73,3.25,10.27,3.68a1.672,1.672,0,0,1,.26,1.31c5.6,1.07,7.89,5.45,12.91,7.1,0.6,0.27-.13,1.88.52,2.1,1.65,0.89,2.19,4.19.53,5.53,0.38,0.58,1.57.36,2.11,0.78,0.02,0.42-.13,1.01.26,1.06a5.272,5.272,0,0,0,2.37,3.68c0.78,1.5,1.82,2.74,1.58,5.25,0.55,0.33,1.03.73,1.58,1.06,0.93,0.45,1.14,1.23.79,2.36,1.47,1.68,1.56,5.85-1.05,6.31,0.18,1.3,1.05,1.8.52,3.16,1.71,0.27,2.04,1.28,1.58,3.15a1.34,1.34,0,0,0,.79.79c0.17,1.22-1.16,3.21-1.58,4.73-0.6.45-.09,2.01-0.26,2.89a9.65,9.65,0,0,1-.26,2.63C1511.32,3291,1511.82,3292.46,1511.65,3293.26Zm-44.24-62.31c0.88,0.62,2.48.52,3.69,0.79C1471.1,3230.18,1468.3,3230.09,1467.41,3230.95Zm32.13,18.41c-0.56-2.59-3.02-3.29-4.74-4.73C1495.66,3246.92,1497.73,3248.01,1499.54,3249.36Zm-16.33,12.35c0.1,1.22-.32,2.96.79,3.16C1485.17,3264.21,1484.03,3262.06,1483.21,3261.71Zm-16.06,68.09c2.04-.5,3.3-1.78,4.74-2.89A6.982,6.982,0,0,0,1467.15,3329.8Zm-38.71,24.45c3.79-.24,6.9-1.17,8.69-3.42C1434.3,3352.04,1430.88,3352.65,1428.44,3354.25Zm6.32,6.57c2.65,0.26,5.39-1.61,7.64-2.62,0.05-.33.41-0.54-0.27-0.53C1439.86,3358.91,1436.07,3358.63,1434.76,3360.82Zm-40.55,7.63c4.27,0.15,6.4-1.85,8.95-3.42C1399.34,3365.34,1396.74,3366.86,1394.21,3368.45Zm-58.99,15.25c0.8-.17,2.27.33,2.63-0.27,0.31,0.05.75-.04,0.79,0.27a3.146,3.146,0,0,1-3.42,1.05v-1.05Zm132.72-132.5a52.334,52.334,0,0,1,5,4.99c-1.64-.92-2.83-3.62-4.47-3.68,0.07-.86-1.03-0.56-1.06-1.31C1467.65,3251.36,1467.88,3251.52,1467.94,3251.2Zm-0.53,0c-0.45-.17-1.92-1.7-0.79-1.05,0.61,0.17.71,0.87,1.32,1.05C1467.88,3251.52,1467.65,3251.36,1467.41,3251.2Zm-46.34,7.62c0.8,0.78,3.41-.25,4.21.53C1424.03,3259.19,1420.65,3259.77,1421.07,3258.82Zm53.72,33.91c0.36,4.18-4.41,4.69-2.37,8.94-0.07,1.16-1.25,1.21-1.32,2.37-0.38,1.37-1.78,1.73-2.37,2.89-1.44,3.1-1.98,5.68-3.16,9.2-2.92,3.14-8.16,3.95-9.48,8.68-3.48,2.4-7.64,4.11-9.74,7.89-3.93,1.71-7.91,3.15-11.33,5.52a74.382,74.382,0,0,1-11.06,6.83c-2.81,1.28-5.79,2.89-8.16,3.68-4.17,1.39-9.53,1.56-13.17,4.47-10.95,2.12-19.87,6.28-32.65,6.57-0.89.17-2.45-.34-2.9,0.27a15.021,15.021,0,0,0-4.21.52c-1.23-.61-3.6-0.09-5.27-0.26a2.73,2.73,0,0,1-1.84-.53v-0.52c1.04-.72,2.43.09,3.69,0a2.277,2.277,0,0,1,1.05-.79c-1.82-.67-3.77.31-5.79-0.26a6.246,6.246,0,0,0-1.58-.53c0.87-.63,4.15.67,3.42-1.05h-2.63c-1.59-.52-2.52-1.7-4.48-1.84,1.69-.73,5.39.87,8.43,0.52-1.46-.73-4.3-0.09-4.74-1.84,1.22-.88,2.22-0.26,3.68,0,5.58,0.99,12.09-.68,16.33-0.78,0.39-1.27-1.51-.25-1.32-1.32a19.446,19.446,0,0,0,4.22.26c-0.58-.56-1.98-0.3-2.37-1.05,1.17-1.57,3.83-.6,5.52-0.79,3.34-.37,6.53-1.76,8.96-2.63,4.56,0.25,7.82-2.81,12.11-3.68,0.31-.04.22-0.48,0.27-0.78,5.22-.84,9.48-2.63,13.95-4.21-0.38-.78-1.02.35-1.84,0,0.29-2.57,3.28-2.44,5-2.89a50.64,50.64,0,0,0,16.86-8.42c0.13-.83.77-1.15,0.79-2.1,4.2-.97,7.15-3.19,8.42-7.1,4.79-.49,8.38-4.18,8.69-9.99,3.05,1.2,5.3-3.82,3.69-7.09,1.1-1.01,3.36-.86,4.21-2.11,0.23-1.62-1.74-2.18-1.31-3.15,0.52-.11,1.95-0.65,2.37,0,0.48-.48.65-1.28,1.31-1.58a9.768,9.768,0,0,1-1.84-1.32c1.26-1.94-.47-3.61-2.11-4.2a3.491,3.491,0,0,1,3.43-.53,4.437,4.437,0,0,1,0-2.89c-0.95-.17-0.7-1.56-1.32-2.63-0.52-3.38-4-3.18-3.69-6.83-0.88.34,0.51,2.95-.79,2.89-0.52.09-.82-0.05-0.79-0.53a23.5,23.5,0,0,0-2.37-4.73,5.076,5.076,0,0,0-2.1-2.63c-0.49,1.04,1.05,1.37.26,1.84-0.22-.05-0.25.1-0.26,0.26a1.33,1.33,0,0,0-.79-0.26,1.842,1.842,0,0,1-.53-0.79,15.223,15.223,0,0,0-2.63-2.63,21.881,21.881,0,0,0-3.16-3.15c-0.01-1.21-1.9-1.91-3.16-2.63-0.34.06-.35,0.79,0,0.79-0.63.86-.78-0.96-1.85-0.53-0.02-.67-0.98-0.42-1.31-0.79h-0.53a6.25,6.25,0,0,0-3.16-.52,2.227,2.227,0,0,1,.26-0.79c0.84,0.04.88-.7,1.85-0.53h1.84c0.21-.99-1.24-0.33-1.84-0.52h-2.11a5.32,5.32,0,0,1,2.37-.53,28.924,28.924,0,0,0-14.22-3.15h-2.37c0.9-1.77,4.32-1.68,6.58-1.32-2.31-1.51-5.38.07-8.69-.26,2.36-1.31,6.58-1.54,10.01-1.58,0.58-1.72-2.34.06-2.11-1.31,3.04-.62,5.62,1.05,8.43.53a17.871,17.871,0,0,0,5,.52,4.17,4.17,0,0,0-3.16-.52c-0.97-.63-3.57.24-2.89-1.32-1.03-.08-2.09.68-2.9,0,4.42-2.87,9.01.89,13.43,1.05,0.71,0.03,1.44-.33,2.11-0.26,4.95,0.54,9.19,4.14,13.69,4.73a1.5,1.5,0,0,1,.26,1.05c4.06,0.51,5.33,3.8,8.96,4.73-0.48,2.12,2.09,2.39,1.05,4.21a9.058,9.058,0,0,0-.53.79,1.8,1.8,0,0,1,1.58,1.84c2.08,1.7,2.05,5.49,4.48,6.84-0.85,1.45.84,1.72,0.53,3.41v0.79c-0.28.6-1.03,0.73-1.32,1.32a3.2,3.2,0,0,0,1.58,2.89c-0.24.66-.5,1.8,0.53,1.84a1.248,1.248,0,0,0-.27.79c-0.44.69-.61,1.67-1.05,2.36C1474.45,3290.29,1474.95,3291.85,1474.79,3292.73ZM1395,3346.36a9,9,0,0,0,6.05-2.36A13.561,13.561,0,0,0,1395,3346.36Zm49.5-93.32c0.55,0.41,1.75.18,2.37,0.52C1447.03,3252.61,1444.95,3252.52,1444.5,3253.04Zm18.7,9.46c0.11,0.94,1.99,2.39,3.16,3.16C1465.88,3264.03,1464.56,3263.25,1463.2,3262.5Zm-8.16,11.31c0.22,0.83-.11,2.21.79,2.36C1456.56,3275.42,1455.72,3274.01,1455.04,3273.81Zm-10.27,46.53c0.61-.96,2.14-1.01,2.63-2.1C1446.34,3318.59,1444.25,3319.29,1444.77,3320.34Zm-26.6,16.56c2.13-.1,5.74-1.41,5.27-2.36C1421.89,3335.54,1419.46,3335.65,1418.17,3336.9Zm4.21,4.47c1.75-.14,5.07-1.38,4.48-2.1C1425.5,3340.1,1422.82,3339.62,1422.38,3341.37Zm48.72-37.33c0.33,1.04-1.61,2.07-2.37,2.89C1469.32,3305.77,1470.72,3305.41,1471.1,3304.04Zm-23.96-34.97a15.223,15.223,0,0,1,2.63,2.63A14.551,14.551,0,0,1,1447.14,3269.07Zm-3.16-3.15a21.881,21.881,0,0,1,3.16,3.15A20.915,20.915,0,0,1,1443.98,3265.92Zm-21.86-9.2a28.924,28.924,0,0,1,14.22,3.15,5.32,5.32,0,0,0-2.37.53h2.11v0.52c-0.97-.17-1.01.57-1.85,0.53-1.79-1.89-5.57-1.79-8.95-2.1-0.8-.78-3.41.25-4.21-0.53a11.268,11.268,0,0,1,3.68-1.05,10.065,10.065,0,0,1,2.9.26c0.05-1.01-1.65-.28-2.11-0.79-1.62.23-3.47,0.22-5,.53C1420.64,3257,1421.78,3257.26,1422.12,3256.72Zm-99.8,47.85a20.527,20.527,0,0,1,3.16-3.16A22.471,22.471,0,0,1,1322.32,3304.57Zm-32.92-15.78a80.445,80.445,0,0,1,6.06-6.05A76.872,76.872,0,0,1,1289.4,3288.79Zm-21.07,22.61a43.964,43.964,0,0,1,4.48-4.47A42.017,42.017,0,0,1,1268.33,3311.4Zm-36.34-10.25a60.835,60.835,0,0,1,5.27-5.26A60.837,60.837,0,0,1,1231.99,3301.15Zm-3.95,41.8a14.606,14.606,0,0,1,2.64-2.63A15.281,15.281,0,0,1,1228.04,3342.95Zm158.53-26.55a14.879,14.879,0,0,1,2.63-2.63A14.879,14.879,0,0,1,1386.57,3316.4Zm52.4-52.85c1.07-.43,1.22,1.39,1.85.53-0.35,0-.34-0.73,0-0.79,1.26,0.72,3.15,1.42,3.16,2.63a20.915,20.915,0,0,0,3.16,3.15,14.551,14.551,0,0,0,2.63,2.63,1.842,1.842,0,0,0,.53.79c-0.44,1.43,1.63,1.12.79,0.26,0.01-.16.04-0.31,0.26-0.26,0.79-.47-0.75-0.8-0.26-1.84a5.076,5.076,0,0,1,2.1,2.63v0.26c-1.08.03-.78,1.43-0.52,2.11-3.2-1.37-4.28-4.85-7.38-6.31,0.28-1.49-1.98-2.29-3.16-3.16-0.31.05-.22,0.48-0.26,0.79a10.924,10.924,0,0,0-6.32-2.1C1435.83,3263.57,1437.41,3263.57,1438.97,3263.55Zm-85.58,14.99a15.223,15.223,0,0,1,2.63-2.63A14.551,14.551,0,0,1,1353.39,3278.54Zm27.39,31.55a14.238,14.238,0,0,1,2.63-2.63A15.223,15.223,0,0,1,1380.78,3310.09Zm-58.46-5.52c-2.92,2.52-6.31,4.57-9.22,7.09,4.65,1.4,9.7,2.42,13.69,4.47,4.77-11.25,6.78-25.61,12.91-36.01a17.77,17.77,0,0,1,3.95-4.74c1.98-1.49,4.77-1.77,7.11-2.89,3.25-1.55,5.95-4.67,9.74-6.57,10.4-5.22,31.5-7.98,33.44,7.62v3.68c-0.63,5.5-3.03,9.25-5.53,12.89,7.41,3.94,7.06,18.67.79,23.66a14.879,14.879,0,0,0-2.63,2.63c-11.21,8.96-26.77,13.59-45.03,15.51h-5.79a19.34,19.34,0,0,1-5.53-2.11c-4.22,5.72-11.19,12.96-20.02,9.73-2.32-.85-3.6-3.45-5.79-4.47-2.69-1.26-7.18-1.94-10.8-2.89-1.07-.28-2.81-1.14-3.42-1.05-1.66.23-4.56,4.22-6.06,5.26-2.52,1.73-6.04,2.7-9.48,3.41a2.842,2.842,0,0,0-2.63,0c-2.2-1.27-3.47,2.3-5,3.68a23.56,23.56,0,0,1-11.33,5.79h-3.68c-3.43-.44-5.03-2.7-6.85-4.74-4.91-1.32-9.23-3.22-14.48-4.2a14.606,14.606,0,0,0-2.64,2.63c-3.7,4.48-20.06,10.6-21.85.52-0.79-4.43,2.01-9.58,3.95-13.14,5.72-10.56,15.04-21.7,21.85-29.18a60.837,60.837,0,0,0,5.27-5.26c8.09-6.29,20.39-20.1,35.29-19.72,5.39,0.14,9.32,3.05,10.27,8.41v3.16c-1.46,8.27-5.95,13.52-10.01,19.19a43.964,43.964,0,0,0-4.48,4.47c-4.02,2.9-7.47,6.38-12.11,8.68,2.86,1.61,6.53,2.42,10.01,3.41,6.09-13.19,14.2-24.37,23.17-34.7a76.872,76.872,0,0,0,6.06-6.05c6.81-5.01,17.23-16.05,30.28-14.45,4.97,0.6,8.77,3.76,10.27,9.46v2.89c-1.32,9.11-5.75,15.11-10.53,20.77A20.527,20.527,0,0,0,1322.32,3304.57Zm61.09,2.89c5.99-6.6.74-15.49-7.64-14.99,0.56-1.55,2.13-2.08,2.9-3.42,5.8-5.17,12.13-21.92-1.84-22.08-8.37-.09-16.34,4.89-20.81,8.94a15.223,15.223,0,0,0-2.63,2.63c-7.75.02-8.21,6.29-10.27,12.35-3.14,9.25-6.84,21.08-7.9,30.76,2.23,4.51,10.65,1.88,15.8.79,11.25-2.37,23.65-6.65,29.76-12.35A15.223,15.223,0,0,0,1383.41,3307.46Zm-62.15-11.83c2.36-3.59,8.44-10.43,7.11-16.83-1.09-5.27-8.7-4.51-13.16-2.63-10.29,4.34-18.32,13.63-25.55,22.87a139.969,139.969,0,0,0-10,14.2c-3.12,5.22-6.63,11.04-6.32,17.35,7.67,2.56,11.15-5.37,14.48-9.72,5.29,3.76,16.53,3.7,22.38,6.83,1.87,1,2.59,3.33,4.74,3.68,3.19,0.51,7.9-2.69,7.9-5.52,0.01-2.85-3.23-3.64-6.05-4.47-8.5-2.5-16.72-5-23.7-8.15a73.477,73.477,0,0,0,23.7-13.14A42.872,42.872,0,0,0,1321.26,3295.63Zm-54.24,7.62c2.3-3.91,9.85-10.01,8.16-17.09-1.94-8.13-15.45-.27-19.49,2.37a73.712,73.712,0,0,0-11.85,9.46,29.75,29.75,0,0,0-3.68,3.68,134.81,134.81,0,0,0-20.81,26.82c-1.92,3.3-4.84,6.68-4.47,11.04,8.02,2.82,11.64-5.91,15.27-9.73,5.07,3.62,15.09,3.8,20.8,6.84,1.84,0.98,2.53,3.6,4.74,3.94,3.51,0.54,9.12-3.09,8.17-7.1-0.46-1.92-3.64-2.65-6.06-3.41-7.88-2.5-15.02-4.78-21.33-7.89a87.09,87.09,0,0,0,26.33-14.72A39.012,39.012,0,0,0,1267.02,3303.25Zm108.75-10.78c-0.16-1.22,1.98-2.41,2.9-3.42C1377.9,3290.39,1376.33,3290.92,1375.77,3292.47Zm59.25-2.63c0.28-2.91-2.42-2.84-2.63-5.26-0.63.25,0.16,1.92-1.05,1.58a11.252,11.252,0,0,0-2.9-5.26c-0.39.12,0.1,0.34,0,.79-0.07.62-1.17,0.16-1.05-.26a18.017,18.017,0,0,0-2.9-2.89c-1.34-1.05-1.35-2.1-3.16-2.89-0.31.04-.22,0.48-0.26,0.79-0.8-.43-1.3-1.16-2.64-1.06-0.31-.47-1.37-0.2-1.84-0.52a2.928,2.928,0,0,1,2.63-.79c-0.28-.6-1.65-0.1-2.37-0.26-0.19-.72,1.25.19,1.06-0.53a20.147,20.147,0,0,0-4.74-1.58,25.432,25.432,0,0,0-6.32-.52c0.44-.7,1.61-0.67,2.37-1.05-0.6-.5-2.14.3-3.43,0,1.62-.99,4.87-0.95,6.59-1.06,0.25-.95-1.04-0.36-1.58-0.52,1.84-.91,5.99.45,9.21,0.52a25.187,25.187,0,0,0-6.05-1.31c3.29-1.37,6.49-.01,10.79.53,3.38,0.42,6,2.86,8.96,3.15,2.03,1.39,3.83,3.01,6.32,3.94-0.27,1.3,1.79,2.24.26,3.16,2.29,2.99,3.87,5.13,4.48,8.94-0.08.53-.72,0.51-0.79,1.05-0.07,1.32,1.44,1.47.79,2.63,0.6,0.58.42,0.87,0,1.57-0.78,1.7.02,2.83-.53,4.47-0.51,1.54-2.79,2.24-1.58,4.74a25.078,25.078,0,0,0-4.74,9.99c-2.16,1.78-5.47,2.42-6.32,5.52-16.64,12.39-35.87,22.19-62.94,24.18-0.89.08-2.13-.2-2.63,0.27-0.87-.27-2.01-0.27-2.63-0.79,0.56-.75,2.94.31,3.16-0.79-1.12-.47-2.46.19-3.95-0.26-0.82-.58,1.89.15,1.58-0.79a5.869,5.869,0,0,1-3.69-1.05c1.24-.79,2.8.35,4.48,0-0.8-.7-3.14.14-3.16-1.32,0.91-.72,1.97.17,3.16,0a10.645,10.645,0,0,0,5.26,0c3-.24,4.74-0.9,6.85-1.05,0.2-1.07-1.71-.05-1.32-1.31,10.55-.3,17.91-5.04,27.39-7.63-0.08-.36-0.66-0.22-1.05-0.26,1.9-2.04,5.01-2.27,7.63-3.42a42.014,42.014,0,0,0,7.11-3.94c0.26-.54.54-1.04,0.79-1.58a8.214,8.214,0,0,0,5.8-5c3.57-.55,5.36-2.87,5.79-6.57,2.79,0.24,2.67-2.42,2.63-4.99,0.66-.66,2.15-0.49,2.64-1.32,0.04-1.09-.79-1.32-1.06-2.1,1.38-.34,1.98.09,2.64-1.05-2.19-.26-0.04-3.59-2.64-3.68,0.1-.87,1.52-0.41,2.37-0.53C1435.37,3291.36,1436.16,3290.43,1435.02,3289.84Zm-4.21-6.57c0.7-.08-0.25,1.47.79,1.05C1431.87,3283.58,1431.19,3282.49,1430.81,3283.27Zm-40.55,48.9a7.271,7.271,0,0,0,3.95-1.58C1392.33,3330.56,1391.43,3331.5,1390.26,3332.17Zm46.34-56.79c0.19,0.88,1.55,1.95,2.11,1.58C1437.91,3276.54,1437.57,3275.64,1436.6,3275.38Zm-30.81,50.22a4.912,4.912,0,0,0,3.69-1.32A18.244,18.244,0,0,0,1405.79,3325.6Zm2.9,3.15a7.03,7.03,0,0,0,3.16-1.31C1410.68,3327.76,1409.17,3327.74,1408.69,3328.75Zm19.75-47.06c0.1-.45-0.39-0.67,0-0.79a11.252,11.252,0,0,1,2.9,5.26c1.21,0.34.42-1.33,1.05-1.58,0.21,2.42,2.91,2.35,2.63,5.26a2.834,2.834,0,0,1-1.58-2.1c-0.73-.12.21,1.43-0.52,1.31-1.58-1.31-2.02-3.76-3.17-5.52-0.67.03-.52,0.88-0.52,1.58-2.58-1.9-4.3-4.65-6.85-6.57-1.07,1.1-2.48-1.39-4.74-.79,0.08-.71,1.11-0.47,1.32-1.05-0.64-.41-1.13-0.55.26-0.53-0.08-.35-0.66-0.22-1.05-0.26a1.64,1.64,0,0,0,.26-0.53c1.34-.1,1.84.63,2.64,1.06,0.04-.31-0.05-0.75.26-0.79,1.81,0.79,1.82,1.84,3.16,2.89,0.72,1.12,1.91,1.77,2.63,2.89a2.5,2.5,0,0,0,1.06,2.1A4.373,4.373,0,0,1,1428.44,3281.69Zm-3.95-3.15a18.017,18.017,0,0,1,2.9,2.89h-0.27C1426.4,3280.31,1425.21,3279.66,1424.49,3278.54Zm25.81-6.05a1.33,1.33,0,0,1,.79.26C1451.93,3273.61,1449.86,3273.92,1450.3,3272.49Zm2.89,1.05v-0.26a23.5,23.5,0,0,1,2.37,4.73A42.111,42.111,0,0,1,1453.19,3273.54Zm-85.58,17.09c-4.63,3.52-10.2,6.12-15.8,8.68a29.942,29.942,0,0,1,6.58-15.51c3.61-4.31,9.05-9.31,16.07-9.2,2.99,5.06-1.92,10.23-4.22,13.4A15.583,15.583,0,0,0,1367.61,3290.63Zm0,0a15.583,15.583,0,0,1,2.63-2.63A14.238,14.238,0,0,1,1367.61,3290.63Zm-50.82,9.47a42.872,42.872,0,0,1,4.47-4.47A42.872,42.872,0,0,1,1316.79,3300.1Zm139.56-21.56c1.3,0.06-.09-2.55.79-2.89-0.31,3.65,3.17,3.45,3.69,6.83-0.34.49-.78-1.13-1.84-0.79,0.36-1.15.03-1.35-.27-2.36-1.08-.03-0.04,2.05-0.79,2.36C1456.75,3281.4,1456.08,3279.44,1456.35,3278.54Zm-153.78,14.98a20.915,20.915,0,0,1,3.16-3.15A21.881,21.881,0,0,1,1302.57,3293.52Zm-6.85,9.99c0.14-.91-0.39-2.49.53-2.62-0.47.49-.2,1.73-0.27,2.62h-0.26Zm10.01-13.14c3.82-2.94,6.4-7.11,12.11-8.15,1,6.88-3.79,12.05-7.9,15.51-4.46,3.75-10.57,6.02-15.8,8.41,0.48-.92,1.28-1.52,1.58-2.63h0.26c0.07-.89-0.2-2.13.27-2.62,1.95-2.61,4.34-4.78,6.32-7.37A21.881,21.881,0,0,0,1305.73,3290.37Zm122.71-8.68a4.373,4.373,0,0,0-.26,1.84,2.5,2.5,0,0,1-1.06-2.1h0.27C1427.27,3281.85,1428.37,3282.31,1428.44,3281.69Zm-188.28,19.98a29.75,29.75,0,0,1,3.68-3.68A28.433,28.433,0,0,1,1240.16,3301.67Zm22.64,5.79a38.127,38.127,0,0,1,4.22-4.21A39.012,39.012,0,0,1,1262.8,3307.46Zm-17.38-2.63a22.471,22.471,0,0,1,3.16-3.16A20.981,20.981,0,0,1,1245.42,3304.83Zm-2.89,2.89a14.551,14.551,0,0,1,2.63-2.63A15.223,15.223,0,0,1,1242.53,3307.72Zm-2.11,3.68a2.273,2.273,0,0,1,1.32-2.63c-0.48.75-1.38,1.08-1.06,2.63h-0.26Zm16.33-6.83c-5.1,4.46-11.64,7.48-18.44,10.25,0.65-1.19,1.91-1.78,2.11-3.42h0.26c-0.32-1.55.58-1.88,1.06-2.63,0.07-.53.71-0.51,0.79-1.05a15.223,15.223,0,0,0,2.63-2.63c-0.05-.22.1-0.25,0.26-0.26a20.981,20.981,0,0,0,3.16-3.16c2.34-2.11,4.78-4.48,7.38-6.57,2.42-1.95,5.33-4.59,8.95-4.47,0.46,4.55-2.87,7.43-4.74,10.52A25.121,25.121,0,0,0,1256.75,3304.57Zm0,0a25.121,25.121,0,0,1,3.42-3.42A25.121,25.121,0,0,1,1256.75,3304.57Zm109.28,37.33c0.5-.47,1.74-0.19,2.63-0.27-0.36.69-2.23-.12-2.63,0.53v-0.26Zm-17.64-26.03a28.423,28.423,0,0,1,1.84-9.73,57.159,57.159,0,0,0,8.43-2.89c2.54-1.06,5.08-3.05,7.37-3.68,3.34-.92,10.34-0.01,10.8,2.89,0.23,1.5-1.63,3.17-2.64,3.95C1368.36,3310.91,1357.43,3313.76,1348.39,3315.87Zm99.01,2.37c-0.49,1.09-2.02,1.14-2.63,2.1C1444.25,3319.29,1446.34,3318.59,1447.4,3318.24Zm-37.92,6.04a4.912,4.912,0,0,1-3.69,1.32A18.244,18.244,0,0,1,1409.48,3324.28Zm62.41,2.63c-1.44,1.11-2.7,2.39-4.74,2.89A6.982,6.982,0,0,1,1471.89,3326.91Zm-60.04.53a7.03,7.03,0,0,1-3.16,1.31C1409.17,3327.74,1410.68,3327.76,1411.85,3327.44Zm1.58,4.47a8.986,8.986,0,0,1-3.42,1.57C1410.4,3332.21,1412.18,3332.32,1413.43,3331.91Zm10.01,2.63c0.47,0.95-3.14,2.26-5.27,2.36C1419.46,3335.65,1421.89,3335.54,1423.44,3334.54Zm3.42,4.73c0.59,0.72-2.73,1.96-4.48,2.1C1422.82,3339.62,1425.5,3340.1,1426.86,3339.27Zm2.37,5.25c-1.15,1.23-3.09,1.66-4.74,2.37C1424.21,3345.29,1427.94,3345.43,1429.23,3344.52Zm7.9,6.31c-1.79,2.25-4.9,3.18-8.69,3.42C1430.88,3352.65,1434.3,3352.04,1437.13,3350.83Zm5,6.84c0.68-.01.32,0.2,0.27,0.53-2.25,1.01-4.99,2.88-7.64,2.62C1436.07,3358.63,1439.86,3358.91,1442.13,3357.67Zm-99.8,28.13c0.46,0.15,1.55-.32,1.58.26-1.13.1-1.05,1.41-2.63,1.05-0.63-.6-2.37-0.09-3.43-0.26-0.34.27-.97,0.26-1.31,0.53,0.4,1.17,1.8,1.35,3.16,1.57-4.14.63-6.78-2.51-10.27-3.41,2.02-.5,3.92,1.07,6.58.79a7.94,7.94,0,0,0,4.48,0C1341.23,3386.28,1342.29,3386.55,1342.33,3385.8Zm93.22-149.32c7.02-.38,12.5,1.73,18.17,3.41a0.735,0.735,0,0,0-.79.53c0.88-.1,2.05-0.5,2.37.53-1.26-.25-2.21.75-2.9,0.26-3.85-2.04-8.09-2.44-13.43-2.63-1.49-.61-4.12-0.09-6.05-0.26C1432.23,3237.19,1434.97,3237.22,1435.55,3236.48Zm-2.63,1.84c1.93,0.17,4.56-.35,6.05.26C1437.04,3238.41,1434.41,3238.93,1432.92,3238.32Zm22.64,3.68c0.73,0.23,2.47-.54,2.37.52-1.06.18-1.5-.25-2.37-0.26V3242Zm0.27,2.89a13.257,13.257,0,0,1,6.05,2.89c0.39-.94-0.84-1.58-0.26-1.84,1.65,0.92,4.74,1.71,4.74,3.42-0.82,1.21-1.66-1.05-2.9-1.05v1.57c-2.34-2.12-6.06-3.08-9.74-3.15C1454.13,3245.82,1455.11,3245.49,1455.83,3244.89Zm-20.02,7.89a4.17,4.17,0,0,1,3.16.52,17.871,17.871,0,0,1-5-.52h1.84Zm70.05,1.84c-0.39-.05-0.24-0.64-0.26-1.06-0.54-.42-1.73-0.2-2.11-0.78,1.66-1.34,1.12-4.64-.53-5.53,1.86-.44,1.38,1.36,1.85,2.63C1505.54,3251.87,1507.59,3252.52,1505.86,3254.62Zm-80.32,2.62c0.46,0.51,2.16-.22,2.11.79a10.065,10.065,0,0,0-2.9-.26C1424.81,3257.39,1425.54,3257.68,1425.54,3257.24Zm47.4-1.05c1.47,1.11,2.41,4.05,4.74,3.42,0.53-.63-0.7-1.74-0.52-2.89a6.111,6.111,0,0,1,2.37,2.89c-1.33.95,0.53,2.65-.53,3.15-2-.1-2.13-2.08-3.42-2.89a50.384,50.384,0,0,0-4.74-4.73c-0.49-1.07-2.82-1.47-2.37-2.63C1470.11,3252.57,1471.3,3255.27,1472.94,3256.19Zm-36.86,4.21c0.6,0.19,2.05-.47,1.84.52h-1.84v-0.52Zm47.92,4.47c-1.11-.2-0.69-1.94-0.79-3.16C1484.03,3262.06,1485.17,3264.21,1484,3264.87Zm-17.64.79c-1.17-.77-3.05-2.22-3.16-3.16C1464.56,3263.25,1465.88,3264.03,1466.36,3265.66Zm19.75-.79c0.09,1.44,1.19,1.9.53,3.42a2.161,2.161,0,0,0,.79.26c0.32,0.64.81,3.33-.79,2.89-1.26-.24-1.16-1.83-1.58-2.89a1.691,1.691,0,0,0,.52-0.26C1486.36,3267.75,1485.33,3265.41,1486.11,3264.87Zm-15.54,4.73a1.8,1.8,0,0,0-1.58-1.84,9.058,9.058,0,0,1,.53-0.79C1470.06,3266.44,1471.8,3269.24,1470.57,3269.6Zm19.49,1.31c0,0.53.72,0.34,0.53,1.06C1489.14,3272.56,1487.64,3268.92,1490.06,3270.91Zm-76.89.79a20.147,20.147,0,0,1,4.74,1.58c0.19,0.72-1.25-.19-1.06.53,0.72,0.16,2.09-.34,2.37.26a2.928,2.928,0,0,0-2.63.79,22.662,22.662,0,0,0-5-.79c-0.63-.6-2.37-0.09-3.43-0.26-0.36-.21,1.14-0.78,1.85-0.79,0.87-.46,1.16.13,2.37,0-0.24-.66-2.37-0.78-2.9-0.27h-1.58C1409.01,3271.62,1412.14,3272.18,1413.17,3271.7Zm-3.69,1.05c0.53-.51,2.66-0.39,2.9.27-1.21.13-1.5-.46-2.37,0C1410,3272.76,1409.68,3272.81,1409.48,3272.75Zm46.35,3.42c-0.9-.15-0.57-1.53-0.79-2.36C1455.72,3274.01,1456.56,3275.42,1455.83,3276.17Zm-24.23,8.15c-1.04.42-.09-1.13-0.79-1.05C1431.19,3282.49,1431.87,3283.58,1431.6,3284.32Zm44.24,0.53a3.2,3.2,0,0,1-1.58-2.89c0.29-.59,1.04-0.72,1.32-1.32v-0.79c0.25,0,.2-0.32.26-0.52,0.4,1.2,1.88,3.97.26,5.52h-0.26Zm15.54,1.05a0.719,0.719,0,0,1,.52.79C1491.97,3287.95,1488.95,3285.64,1491.38,3285.9Zm-46.61,5.26c0.65-1.16-.86-1.31-0.79-2.63,0.07-.54.71-0.52,0.79-1.05a4.522,4.522,0,0,1,1.05,3.15C1445.41,3290.75,1445.59,3291.46,1444.77,3291.16Zm-90.06,67.04c2.02,0.57,3.97-.41,5.79.26a2.277,2.277,0,0,0-1.05.79c-1.26.09-2.65-.72-3.69,0C1355.37,3358.94,1354.58,3359.02,1354.71,3358.2Zm83.74,7.36c2.03,0.44,4.17-1.27,6.32-1.58-1.86,1.83-4.53,2.84-7.64,3.42,0.08-.64,1.62-1.17,1.05-1.58C1438.2,3365.66,1438.22,3365.51,1438.45,3365.56Zm8.42-112c-0.62-.34-1.82-0.11-2.37-0.52C1444.95,3252.52,1447.03,3252.61,1446.87,3253.56Zm-52.66,77.03a7.271,7.271,0,0,1-3.95,1.58C1391.43,3331.5,1392.33,3330.56,1394.21,3330.59Zm6.84,13.41a9,9,0,0,1-6.05,2.36A13.561,13.561,0,0,1,1401.05,3344Zm2.11,21.03c-2.55,1.57-4.68,3.57-8.95,3.42C1396.74,3366.86,1399.34,3365.34,1403.16,3365.03Zm-36.6,0c1.05-.61,3.24-0.09,4.74-0.26C1370.24,3365.38,1368.05,3364.86,1366.56,3365.03Zm-30.55,21.3h4.48A7.94,7.94,0,0,1,1336.01,3386.33Zm102.44-152.22c-0.05-.57.93-0.12,1.31-0.26,0.35-.34.98-0.35,1.06,0.26C1440.16,3234.73,1439.27,3234.11,1438.45,3234.11Zm56.35,10.52c1.72,1.44,4.18,2.14,4.74,4.73C1497.73,3248.01,1495.66,3246.92,1494.8,3244.63Zm-56.09,32.33c-0.56.37-1.92-.7-2.11-1.58C1437.57,3275.64,1437.91,3276.54,1438.71,3276.96Z" transform="translate(-1206.06 -3227)"/>
</svg>
