<svg xmlns="http://www.w3.org/2000/svg" width="47" height="40" viewBox="0 0 47 40">
  <metadata><?xpacket begin="﻿" id="W5M0MpCehiHzreSzNTczkc9d"?>
<x:xmpmeta xmlns:x="adobe:ns:meta/" x:xmptk="Adobe XMP Core 5.6-c138 79.159824, 2016/09/14-01:09:01        ">
   <rdf:RDF xmlns:rdf="http://www.w3.org/1999/02/22-rdf-syntax-ns#">
      <rdf:Description rdf:about=""/>
   </rdf:RDF>
</x:xmpmeta>
                                                                                                    
                                                                                                    
                                                                                                    
                                                                                                    
                                                                                                    
                                                                                                    
                                                                                                    
                                                                                                    
                                                                                                    
                                                                                                    
                                                                                                    
                                                                                                    
                                                                                                    
                                                                                                    
                                                                                                    
                                                                                                    
                                                                                                    
                                                                                                    
                                                                                                    
                                                                                                    
                           
<?xpacket end="w"?></metadata>
<defs>
    <style>
      .cls-1 {
        fill: #fee934;
        fill-rule: evenodd;
      }
    </style>
  </defs>
  <path id="Forma_1" data-name="Forma 1" class="cls-1" d="M1543.08,101.858a1.717,1.717,0,0,0,1.72-1.714V96.716a1.72,1.72,0,0,0-3.44,0v3.428A1.717,1.717,0,0,0,1543.08,101.858Zm6.69,19.047a9.721,9.721,0,1,0-14.56-12.766,11.98,11.98,0,0,0-15.6,10.693A8.564,8.564,0,0,0,1523.59,135h22.93A7.413,7.413,0,0,0,1549.77,120.905Zm-6.69-13.333a6.3,6.3,0,0,1,6.31,6.285,6.189,6.189,0,0,1-.87,3.133,8.579,8.579,0,0,0-7.45-4.833,12.181,12.181,0,0,0-2.67-2.477A6.271,6.271,0,0,1,1543.08,107.572Zm3.44,24h-22.93a5.134,5.134,0,0,1-2.38-9.7l1.72-.9,0.12-1.932a8.587,8.587,0,0,1,15.32-4.763l0.99,1.254,1.6,0.051a5.121,5.121,0,0,1,4.99,5.13V123l2.11,0.879A4,4,0,0,1,1546.52,131.569Zm5.73-25.14a1.716,1.716,0,0,0,1.22-.5l2.29-2.285a1.716,1.716,0,0,0-2.43-2.424l-2.29,2.286A1.708,1.708,0,0,0,1552.25,106.429Zm-19.56-.5a1.724,1.724,0,0,0,2.94-1.212,1.678,1.678,0,0,0-.51-1.212l-2.29-2.286a1.716,1.716,0,0,0-2.43,2.424Zm27.59,6.216h-3.44a1.714,1.714,0,1,0,0,3.428h3.44A1.714,1.714,0,1,0,1560.28,112.143Z" transform="translate(-1515 -95)"/>
</svg>
