<?xml version="1.0" standalone="no"?>
<!DOCTYPE svg PUBLIC "-//W3C//DTD SVG 20010904//EN"
 "http://www.w3.org/TR/2001/REC-SVG-20010904/DTD/svg10.dtd">
<svg version="1.0" xmlns="http://www.w3.org/2000/svg"
 width="150.000000pt" height="150.000000pt" viewBox="0 0 150.000000 150.000000"
 preserveAspectRatio="xMidYMid meet">
<metadata>
Created by potrace 1.11, written by Peter Selinger 2001-2013
</metadata>
<g transform="translate(0.000000,150.000000) scale(0.100000,-0.100000)"
fill="#000000" stroke="none">
<path d="M952 1403 c-6 -2 -10 -8 -7 -12 2 -5 -7 -6 -22 -3 -14 3 -23 1 -20
-4 3 -5 -14 -10 -36 -12 -41 -3 -79 -22 -43 -22 9 0 15 -4 11 -9 -7 -12 71
-32 134 -34 8 0 21 -12 29 -27 10 -18 31 -31 61 -40 34 -10 59 -28 95 -68 42
-46 51 -51 56 -36 6 15 9 11 19 -19 7 -21 25 -45 39 -55 32 -20 43 -33 36 -44
-3 -4 0 -8 5 -8 19 0 12 -28 -8 -35 -18 -6 -18 -7 -1 -43 18 -36 18 -37 -1
-44 -12 -5 -16 -13 -13 -23 4 -10 -1 -22 -13 -30 -12 -9 -20 -26 -20 -42 0
-16 -10 -34 -24 -46 -13 -11 -25 -23 -25 -28 -1 -5 -2 -14 -3 -20 -2 -17 -70
-79 -86 -79 -8 0 -15 -6 -15 -12 0 -7 -17 -24 -36 -38 -20 -14 -45 -34 -57
-44 -40 -37 -127 -83 -192 -102 -38 -11 -67 -25 -70 -35 -3 -9 -32 -23 -68
-34 -34 -10 -69 -22 -77 -27 -32 -17 -123 -49 -128 -44 -2 3 -12 1 -22 -4 -24
-13 -69 -22 -113 -24 -22 -1 -37 -6 -37 -13 0 -22 -34 -30 -135 -31 -61 -1
-99 -5 -98 -12 2 -5 -10 -7 -30 -4 l-32 5 33 -17 c37 -19 42 -34 10 -27 -21 4
-20 2 4 -14 16 -10 28 -21 28 -25 0 -5 7 -8 16 -8 8 0 12 -4 9 -10 -10 -15 37
-22 111 -15 38 3 89 8 114 10 77 7 309 65 335 85 6 4 39 16 75 26 77 21 177
69 281 135 42 27 81 49 88 49 7 0 26 14 44 30 18 17 51 43 74 57 23 15 44 35
46 44 3 10 22 28 43 42 44 27 67 52 70 74 1 8 6 22 10 31 4 9 8 22 9 27 2 6
14 27 28 48 15 22 23 45 20 57 -3 12 2 29 11 39 15 16 29 81 27 121 -6 112
-25 184 -54 202 -5 3 -11 17 -13 30 -1 12 -3 26 -3 31 -2 21 -82 82 -145 111
-120 54 -277 88 -324 69z m-802 -1297 c0 -11 -19 -15 -25 -6 -3 5 1 10 9 10 9
0 16 -2 16 -4z"/>
<path d="M830 1217 c0 -5 -3 -7 -6 -4 -4 3 -15 2 -25 -3 -10 -6 -29 -11 -43
-12 -15 -1 -26 -5 -26 -9 0 -15 38 -35 70 -38 22 -1 43 -11 57 -27 12 -13 24
-24 25 -23 11 7 56 -19 80 -47 17 -19 34 -31 39 -28 5 3 12 -3 16 -13 3 -10
18 -28 32 -40 20 -16 23 -24 14 -33 -7 -8 -8 -22 -3 -41 5 -17 5 -29 -1 -29
-5 0 -9 -9 -9 -20 0 -11 -4 -20 -9 -20 -5 0 -12 -13 -16 -29 -3 -16 -13 -32
-21 -35 -8 -3 -14 -12 -14 -20 0 -37 -228 -196 -281 -196 -9 0 -19 -6 -22 -14
-5 -12 -24 -20 -92 -40 -5 -2 -13 -4 -18 -5 -4 0 -20 -7 -35 -15 -15 -7 -54
-19 -87 -26 -33 -6 -71 -17 -85 -24 -14 -7 -47 -14 -75 -15 -27 -1 -62 -4 -78
-7 l-27 -6 22 -20 c21 -18 21 -19 3 -14 l-20 6 20 -15 c11 -9 28 -22 38 -30
12 -11 32 -13 70 -10 28 3 70 7 92 9 46 5 75 11 120 26 18 6 41 13 51 15 77
18 207 74 279 120 30 19 59 35 64 35 11 0 63 43 107 88 18 17 36 32 39 32 13
0 36 31 47 62 6 18 17 40 25 49 8 9 15 27 17 40 1 13 8 34 14 46 7 13 12 40
12 60 0 21 0 49 0 62 0 58 -96 211 -133 211 -2 0 -22 8 -43 17 -22 9 -46 18
-54 19 -8 2 -31 6 -50 10 -63 12 -80 12 -80 1z"/>
<path d="M700 1090 c0 -5 -17 -9 -57 -12 -23 -2 15 -41 43 -44 15 -2 30 -7 33
-12 3 -5 21 -17 39 -26 17 -9 32 -21 32 -27 0 -5 8 -13 18 -16 9 -4 25 -16 34
-28 34 -41 -6 -142 -82 -205 -23 -19 -47 -39 -53 -45 -7 -5 -25 -16 -42 -24
-16 -7 -43 -19 -60 -27 -32 -14 -87 -37 -95 -38 -40 -9 -109 -30 -123 -37 -10
-5 -36 -9 -57 -7 -46 2 -58 -6 -40 -27 10 -12 10 -15 -1 -15 -8 0 -2 -8 14
-18 23 -16 37 -17 95 -10 127 16 320 93 410 163 24 19 92 87 92 92 0 3 6 19
14 36 42 93 43 143 5 221 -19 40 -34 55 -72 73 -26 14 -60 26 -75 27 -15 2
-27 5 -27 6 0 1 -10 3 -22 4 -13 2 -23 0 -23 -4z"/>
</g>
</svg>
